<?xml version="1.0" encoding="us-ascii" standalone="no"?><svg xmlns="http://www.w3.org/2000/svg" xmlns:xlink="http://www.w3.org/1999/xlink" contentStyleType="text/css" height="662px" preserveAspectRatio="none" style="width:10397px;height:662px;background:#FFFFFF;" version="1.1" viewBox="0 0 10397 662" width="10397px" zoomAndPan="magnify"><defs/><g><text fill="#000000" font-family="Verdana" font-size="22" font-weight="bold" lengthAdjust="spacing" textLength="747" x="4820.99" y="35.4209">LibroNova Library Management System - Use Case Diagram</text><!--cluster LibroNova Library Management System--><g id="cluster_LibroNova Library Management System"><rect fill="#FFFFFF" height="356.5" rx="2.5" ry="2.5" style="stroke:#000000;stroke-width:1.0;" width="6620" x="1120.98" y="196.6094"/><text fill="#000000" font-family="Verdana" font-size="14" font-weight="bold" lengthAdjust="spacing" textLength="308" x="4276.98" y="211.6045">LibroNova Library Management System</text></g><!--cluster Book Management--><g id="cluster_Book Management"><path d="M1147.48,411.1094 L1293.48,411.1094 A3.75,3.75 0 0 1 1295.98,413.6094 L1302.98,433.4063 L2549.48,433.4063 A2.5,2.5 0 0 1 2551.98,435.9063 L2551.98,524.6094 A2.5,2.5 0 0 1 2549.48,527.1094 L1147.48,527.1094 A2.5,2.5 0 0 1 1144.98,524.6094 L1144.98,413.6094 A2.5,2.5 0 0 1 1147.48,411.1094 " fill="#FFFFFF" style="stroke:#000000;stroke-width:1.0;"/><line style="stroke:#000000;stroke-width:1.0;" x1="1144.98" x2="1302.98" y1="433.4063" y2="433.4063"/><text fill="#000000" font-family="Verdana" font-size="14" font-weight="bold" lengthAdjust="spacing" textLength="145" x="1148.98" y="426.1045">Book Management</text></g><!--cluster Member Management--><g id="cluster_Member Management"><path d="M5978.48,409.1094 L6149.48,409.1094 A3.75,3.75 0 0 1 6151.98,411.6094 L6158.98,431.4063 L7714.48,431.4063 A2.5,2.5 0 0 1 7716.98,433.9063 L7716.98,526.6094 A2.5,2.5 0 0 1 7714.48,529.1094 L5978.48,529.1094 A2.5,2.5 0 0 1 5975.98,526.6094 L5975.98,411.6094 A2.5,2.5 0 0 1 5978.48,409.1094 " fill="#FFFFFF" style="stroke:#000000;stroke-width:1.0;"/><line style="stroke:#000000;stroke-width:1.0;" x1="5975.98" x2="6158.98" y1="431.4063" y2="431.4063"/><text fill="#000000" font-family="Verdana" font-size="14" font-weight="bold" lengthAdjust="spacing" textLength="170" x="5979.98" y="424.1045">Member Management</text></g><!--cluster Loan Management--><g id="cluster_Loan Management"><path d="M2578.48,243.1094 L2723.48,243.1094 A3.75,3.75 0 0 1 2725.98,245.6094 L2732.98,265.4063 L3610.48,265.4063 A2.5,2.5 0 0 1 3612.98,267.9063 L3612.98,520.6094 A2.5,2.5 0 0 1 3610.48,523.1094 L2578.48,523.1094 A2.5,2.5 0 0 1 2575.98,520.6094 L2575.98,245.6094 A2.5,2.5 0 0 1 2578.48,243.1094 " fill="#FFFFFF" style="stroke:#000000;stroke-width:1.0;"/><line style="stroke:#000000;stroke-width:1.0;" x1="2575.98" x2="2732.98" y1="265.4063" y2="265.4063"/><text fill="#000000" font-family="Verdana" font-size="14" font-weight="bold" lengthAdjust="spacing" textLength="144" x="2579.98" y="258.1045">Loan Management</text></g><!--cluster Reports & Analytics--><g id="cluster_Reports &amp; Analytics"><path d="M3639.48,239.6094 L3796.48,239.6094 A3.75,3.75 0 0 1 3798.98,242.1094 L3805.98,261.9063 L5035.48,261.9063 A2.5,2.5 0 0 1 5037.98,264.4063 L5037.98,357.1094 A2.5,2.5 0 0 1 5035.48,359.6094 L3639.48,359.6094 A2.5,2.5 0 0 1 3636.98,357.1094 L3636.98,242.1094 A2.5,2.5 0 0 1 3639.48,239.6094 " fill="#FFFFFF" style="stroke:#000000;stroke-width:1.0;"/><line style="stroke:#000000;stroke-width:1.0;" x1="3636.98" x2="3805.98" y1="261.9063" y2="261.9063"/><text fill="#000000" font-family="Verdana" font-size="14" font-weight="bold" lengthAdjust="spacing" textLength="156" x="3640.98" y="254.6045">Reports &amp; Analytics</text></g><!--cluster System Administration--><g id="cluster_System Administration"><path d="M6851.48,241.6094 L7029.48,241.6094 A3.75,3.75 0 0 1 7031.98,244.1094 L7038.98,263.9063 L7714.48,263.9063 A2.5,2.5 0 0 1 7716.98,266.4063 L7716.98,355.1094 A2.5,2.5 0 0 1 7714.48,357.6094 L6851.48,357.6094 A2.5,2.5 0 0 1 6848.98,355.1094 L6848.98,244.1094 A2.5,2.5 0 0 1 6851.48,241.6094 " fill="#FFFFFF" style="stroke:#000000;stroke-width:1.0;"/><line style="stroke:#000000;stroke-width:1.0;" x1="6848.98" x2="7038.98" y1="263.9063" y2="263.9063"/><text fill="#000000" font-family="Verdana" font-size="14" font-weight="bold" lengthAdjust="spacing" textLength="177" x="6852.98" y="256.6045">System Administration</text></g><!--cluster Self-Service--><g id="cluster_Self-Service"><path d="M5064.48,241.1094 L5160.48,241.1094 A3.75,3.75 0 0 1 5162.98,243.6094 L5169.98,263.4063 L5949.48,263.4063 A2.5,2.5 0 0 1 5951.98,265.9063 L5951.98,518.6094 A2.5,2.5 0 0 1 5949.48,521.1094 L5064.48,521.1094 A2.5,2.5 0 0 1 5061.98,518.6094 L5061.98,243.6094 A2.5,2.5 0 0 1 5064.48,241.1094 " fill="#FFFFFF" style="stroke:#000000;stroke-width:1.0;"/><line style="stroke:#000000;stroke-width:1.0;" x1="5061.98" x2="5169.98" y1="263.4063" y2="263.4063"/><text fill="#000000" font-family="Verdana" font-size="14" font-weight="bold" lengthAdjust="spacing" textLength="95" x="5065.98" y="256.1045">Self-Service</text></g><g id="elem_UC1"><ellipse cx="1424.208" cy="488.155" fill="#FFFFFF" rx="85.728" ry="19.5456" style="stroke:#000000;stroke-width:1.0;"/><text fill="#000000" font-family="Verdana" font-size="14" lengthAdjust="spacing" textLength="132" x="1358.208" y="491.0017">Register New Book</text></g><g id="elem_UC2"><ellipse cx="1648.1408" cy="488.1415" fill="#FFFFFF" rx="103.1608" ry="23.0322" style="stroke:#000000;stroke-width:1.0;"/><text fill="#000000" font-family="Verdana" font-size="14" lengthAdjust="spacing" textLength="171" x="1562.6408" y="490.9882">Update Book Information</text></g><g id="elem_UC3"><ellipse cx="1232.1581" cy="488.245" fill="#FFFFFF" rx="71.1781" ry="16.6356" style="stroke:#000000;stroke-width:1.0;"/><text fill="#000000" font-family="Verdana" font-size="14" lengthAdjust="spacing" textLength="96" x="1181.1581" y="491.9926">Search Books</text></g><g id="elem_UC4"><ellipse cx="1869.975" cy="488.3084" fill="#FFFFFF" rx="83.995" ry="19.199" style="stroke:#000000;stroke-width:1.0;"/><text fill="#000000" font-family="Verdana" font-size="14" lengthAdjust="spacing" textLength="128" x="1805.7135" y="491.2449">View Book Catalog</text></g><g id="elem_UC5"><ellipse cx="2057.0033" cy="488.014" fill="#FFFFFF" rx="67.5233" ry="15.9047" style="stroke:#000000;stroke-width:1.0;"/><text fill="#000000" font-family="Verdana" font-size="14" lengthAdjust="spacing" textLength="86" x="2011.0033" y="491.7616">Delete Book</text></g><g id="elem_UC6"><ellipse cx="2247.8318" cy="488.1797" fill="#FFFFFF" rx="88.3518" ry="20.0704" style="stroke:#000000;stroke-width:1.0;"/><text fill="#000000" font-family="Verdana" font-size="14" lengthAdjust="spacing" textLength="138" x="2178.8318" y="491.0264">Manage Book Stock</text></g><g id="elem_UC7"><ellipse cx="2453.8458" cy="487.8825" fill="#FFFFFF" rx="81.8658" ry="18.7732" style="stroke:#000000;stroke-width:1.0;"/><text fill="#000000" font-family="Verdana" font-size="14" lengthAdjust="spacing" textLength="123" x="2391.3605" y="491.0557">View Book Details</text></g><g id="elem_UC8"><ellipse cx="6342.9918" cy="488.0117" fill="#FFFFFF" rx="95.0118" ry="21.4024" style="stroke:#000000;stroke-width:1.0;"/><text fill="#000000" font-family="Verdana" font-size="14" lengthAdjust="spacing" textLength="153" x="6266.4918" y="490.8584">Register New Member</text></g><g id="elem_UC9"><ellipse cx="6782.8159" cy="488.0766" fill="#FFFFFF" rx="112.8359" ry="24.9672" style="stroke:#000000;stroke-width:1.0;"/><text fill="#000000" font-family="Verdana" font-size="14" lengthAdjust="spacing" textLength="192" x="6686.8159" y="490.9232">Update Member Information</text></g><g id="elem_UC10"><ellipse cx="6554.0907" cy="488.1315" fill="#FFFFFF" rx="80.6107" ry="18.5221" style="stroke:#000000;stroke-width:1.0;"/><text fill="#000000" font-family="Verdana" font-size="14" lengthAdjust="spacing" textLength="120" x="6492.6526" y="491.4441">View Member List</text></g><g id="elem_UC11"><ellipse cx="7010.0391" cy="488.2212" fill="#FFFFFF" rx="78.5591" ry="18.1118" style="stroke:#000000;stroke-width:1.0;"/><text fill="#000000" font-family="Verdana" font-size="14" lengthAdjust="spacing" textLength="115" x="6950.3128" y="491.7618">Activate Member</text></g><g id="elem_UC12"><ellipse cx="7210.0798" cy="488.3293" fill="#FFFFFF" rx="86.5998" ry="19.72" style="stroke:#000000;stroke-width:1.0;"/><text fill="#000000" font-family="Verdana" font-size="14" lengthAdjust="spacing" textLength="134" x="7143.0798" y="491.176">Deactivate Member</text></g><g id="elem_UC13"><ellipse cx="6070.8535" cy="487.8841" fill="#FFFFFF" rx="79.3735" ry="18.2747" style="stroke:#000000;stroke-width:1.0;"/><text fill="#000000" font-family="Verdana" font-size="14" lengthAdjust="spacing" textLength="117" x="6010.4476" y="491.3342">Search Members</text></g><g id="elem_UC14"><ellipse cx="7624.8644" cy="488.0863" fill="#FFFFFF" rx="75.3844" ry="17.4769" style="stroke:#000000;stroke-width:1.0;"/><text fill="#000000" font-family="Verdana" font-size="14" lengthAdjust="spacing" textLength="107" x="7568.3644" y="491.8338">Delete Member</text></g><g id="elem_UC15"><ellipse cx="7422.9796" cy="488.2093" fill="#FFFFFF" rx="90.9996" ry="20.5999" style="stroke:#000000;stroke-width:1.0;"/><text fill="#000000" font-family="Verdana" font-size="14" lengthAdjust="spacing" textLength="144" x="7350.9796" y="491.056">View Member Details</text></g><g id="elem_UC16"><ellipse cx="3204.8458" cy="487.8825" fill="#FFFFFF" rx="81.8658" ry="18.7732" style="stroke:#000000;stroke-width:1.0;"/><text fill="#000000" font-family="Verdana" font-size="14" lengthAdjust="spacing" textLength="123" x="3142.3605" y="491.0557">Create Book Loan</text></g><g id="elem_UC17"><ellipse cx="3484.8607" cy="488.0855" fill="#FFFFFF" rx="67.8807" ry="15.9761" style="stroke:#000000;stroke-width:1.0;"/><text fill="#000000" font-family="Verdana" font-size="14" lengthAdjust="spacing" textLength="87" x="3438.3607" y="491.8331">Return Book</text></g><g id="elem_UC18"><ellipse cx="2673.9255" cy="318.7985" fill="#FFFFFF" rx="81.4455" ry="18.6891" style="stroke:#000000;stroke-width:1.0;"/><text fill="#000000" font-family="Verdana" font-size="14" lengthAdjust="spacing" textLength="122" x="2611.7909" y="322.0183">View Active Loans</text></g><g id="elem_UC19"><ellipse cx="2871.0907" cy="318.6315" fill="#FFFFFF" rx="80.6107" ry="18.5221" style="stroke:#000000;stroke-width:1.0;"/><text fill="#000000" font-family="Verdana" font-size="14" lengthAdjust="spacing" textLength="120" x="2809.6526" y="321.9441">View Loan History</text></g><g id="elem_UC20"><ellipse cx="3017.1581" cy="488.245" fill="#FFFFFF" rx="71.1781" ry="16.6356" style="stroke:#000000;stroke-width:1.0;"/><text fill="#000000" font-family="Verdana" font-size="14" lengthAdjust="spacing" textLength="96" x="2966.1581" y="491.9926">Calculate Fine</text></g><g id="elem_UC21"><ellipse cx="3508.2118" cy="318.8557" fill="#FFFFFF" rx="89.2318" ry="20.2464" style="stroke:#000000;stroke-width:1.0;"/><text fill="#000000" font-family="Verdana" font-size="14" lengthAdjust="spacing" textLength="140" x="3438.2118" y="321.7024">View Overdue Loans</text></g><g id="elem_UC22"><ellipse cx="3288.9918" cy="318.5117" fill="#FFFFFF" rx="95.0118" ry="21.4024" style="stroke:#000000;stroke-width:1.0;"/><text fill="#000000" font-family="Verdana" font-size="14" lengthAdjust="spacing" textLength="153" x="3212.4918" y="321.3584">Process Fine Payment</text></g><g id="elem_UC23"><ellipse cx="3073.1435" cy="318.7421" fill="#FFFFFF" rx="86.1635" ry="19.6327" style="stroke:#000000;stroke-width:1.0;"/><text fill="#000000" font-family="Verdana" font-size="14" lengthAdjust="spacing" textLength="133" x="3006.6435" y="321.5888">Extend Loan Period</text></g><g id="elem_UC24"><ellipse cx="4695.8076" cy="318.3749" fill="#FFFFFF" rx="106.8276" ry="23.7655" style="stroke:#000000;stroke-width:1.0;"/><text fill="#000000" font-family="Verdana" font-size="14" lengthAdjust="spacing" textLength="179" x="4606.3076" y="321.2216">Generate Overdue Report</text></g><g id="elem_UC25"><ellipse cx="4468.8392" cy="318.4812" fill="#FFFFFF" rx="84.8592" ry="19.3718" style="stroke:#000000;stroke-width:1.0;"/><text fill="#000000" font-family="Verdana" font-size="14" lengthAdjust="spacing" textLength="130" x="4403.8392" y="321.3279">Export Data to CSV</text></g><g id="elem_UC26"><ellipse cx="4929.8672" cy="318.3868" fill="#FFFFFF" rx="91.8872" ry="20.7774" style="stroke:#000000;stroke-width:1.0;"/><text fill="#000000" font-family="Verdana" font-size="14" lengthAdjust="spacing" textLength="146" x="4856.8672" y="321.2335">View Library Statistics</text></g><g id="elem_UC27"><ellipse cx="4021.8886" cy="318.6911" fill="#FFFFFF" rx="105.9086" ry="23.5817" style="stroke:#000000;stroke-width:1.0;"/><text fill="#000000" font-family="Verdana" font-size="14" lengthAdjust="spacing" textLength="177" x="3933.3886" y="321.5378">Generate Member Report</text></g><g id="elem_UC28"><ellipse cx="3767.2103" cy="318.8554" fill="#FFFFFF" rx="114.2303" ry="25.2461" style="stroke:#000000;stroke-width:1.0;"/><text fill="#000000" font-family="Verdana" font-size="14" lengthAdjust="spacing" textLength="195" x="3669.7103" y="321.7021">View Book Availability Report</text></g><g id="elem_UC29"><ellipse cx="4256.2029" cy="318.654" fill="#FFFFFF" rx="93.2229" ry="21.0446" style="stroke:#000000;stroke-width:1.0;"/><text fill="#000000" font-family="Verdana" font-size="14" lengthAdjust="spacing" textLength="149" x="4181.7029" y="321.5006">Generate Fine Report</text></g><g id="elem_UC30"><ellipse cx="7598.1408" cy="318.6415" fill="#FFFFFF" rx="103.1608" ry="23.0322" style="stroke:#000000;stroke-width:1.0;"/><text fill="#000000" font-family="Verdana" font-size="14" lengthAdjust="spacing" textLength="171" x="7512.6408" y="321.4882">Manage System Settings</text></g><g id="elem_UC31"><ellipse cx="6946.9255" cy="318.7985" fill="#FFFFFF" rx="81.4455" ry="18.6891" style="stroke:#000000;stroke-width:1.0;"/><text fill="#000000" font-family="Verdana" font-size="14" lengthAdjust="spacing" textLength="122" x="6884.7909" y="322.0183">Backup Database</text></g><g id="elem_UC32"><ellipse cx="7145.768" cy="318.467" fill="#FFFFFF" rx="82.288" ry="18.8576" style="stroke:#000000;stroke-width:1.0;"/><text fill="#000000" font-family="Verdana" font-size="14" lengthAdjust="spacing" textLength="124" x="7082.9305" y="321.5932">View System Logs</text></g><g id="elem_UC33"><ellipse cx="7362.1426" cy="318.6419" fill="#FFFFFF" rx="98.1626" ry="22.0325" style="stroke:#000000;stroke-width:1.0;"/><text fill="#000000" font-family="Verdana" font-size="14" lengthAdjust="spacing" textLength="160" x="7282.1426" y="321.4886">Manage User Accounts</text></g><g id="elem_UC34"><ellipse cx="5289.1668" cy="488.0467" fill="#FFFFFF" rx="72.6868" ry="16.9374" style="stroke:#000000;stroke-width:1.0;"/><text fill="#000000" font-family="Verdana" font-size="14" lengthAdjust="spacing" textLength="100" x="5236.1668" y="491.7943">View My Loans</text></g><g id="elem_UC35"><ellipse cx="5635.1581" cy="318.745" fill="#FFFFFF" rx="71.1781" ry="16.6356" style="stroke:#000000;stroke-width:1.0;"/><text fill="#000000" font-family="Verdana" font-size="14" lengthAdjust="spacing" textLength="96" x="5584.1581" y="322.4926">View My Fines</text></g><g id="elem_UC36"><ellipse cx="5839.191" cy="318.5516" fill="#FFFFFF" rx="97.711" ry="21.9422" style="stroke:#000000;stroke-width:1.0;"/><text fill="#000000" font-family="Verdana" font-size="14" lengthAdjust="spacing" textLength="159" x="5759.691" y="321.3983">Search Available Books</text></g><g id="elem_UC37"><ellipse cx="5183.8886" cy="318.6911" fill="#FFFFFF" rx="105.9086" ry="23.5817" style="stroke:#000000;stroke-width:1.0;"/><text fill="#000000" font-family="Verdana" font-size="14" lengthAdjust="spacing" textLength="177" x="5095.3886" y="321.5378">View Personal Information</text></g><g id="elem_UC38"><ellipse cx="5426.7723" cy="318.3678" fill="#FFFFFF" rx="101.7923" ry="22.7585" style="stroke:#000000;stroke-width:1.0;"/><text fill="#000000" font-family="Verdana" font-size="14" lengthAdjust="spacing" textLength="168" x="5342.7723" y="321.2145">Request Loan Extension</text></g><!--entity librarian--><g id="elem_librarian"><ellipse cx="2030.98" cy="65.6094" fill="#FFFFFF" rx="8" ry="8" style="stroke:#000000;stroke-width:1.0;"/><path d="M2030.98,73.6094 L2030.98,100.6094 M2017.98,81.6094 L2043.98,81.6094 M2030.98,100.6094 L2017.98,115.6094 M2030.98,100.6094 L2043.98,115.6094 " fill="none" style="stroke:#000000;stroke-width:1.0;"/><text fill="#000000" font-family="Verdana" font-size="14" lengthAdjust="spacing" textLength="57" x="2002.48" y="130.6045">Librarian</text></g><!--entity member--><g id="elem_member"><ellipse cx="3756.98" cy="65.6094" fill="#FFFFFF" rx="8" ry="8" style="stroke:#000000;stroke-width:1.0;"/><path d="M3756.98,73.6094 L3756.98,100.6094 M3743.98,81.6094 L3769.98,81.6094 M3756.98,100.6094 L3743.98,115.6094 M3756.98,100.6094 L3769.98,115.6094 " fill="none" style="stroke:#000000;stroke-width:1.0;"/><text fill="#000000" font-family="Verdana" font-size="14" lengthAdjust="spacing" textLength="105" x="3704.48" y="130.6045">Library Member</text></g><!--entity admin--><g id="elem_admin"><ellipse cx="8333.98" cy="65.6094" fill="#FFFFFF" rx="8" ry="8" style="stroke:#000000;stroke-width:1.0;"/><path d="M8333.98,73.6094 L8333.98,100.6094 M8320.98,81.6094 L8346.98,81.6094 M8333.98,100.6094 L8320.98,115.6094 M8333.98,100.6094 L8346.98,115.6094 " fill="none" style="stroke:#000000;stroke-width:1.0;"/><text fill="#000000" font-family="Verdana" font-size="14" lengthAdjust="spacing" textLength="139" x="8264.48" y="130.6045">Library Administrator</text></g><g id="elem_GMN131"><path d="M7756.48,468.1094 L7756.48,508.375 L7951.48,508.375 L7951.48,478.1094 L7941.48,468.1094 L7756.48,468.1094 " fill="#FFFFFF" style="stroke:#000000;stroke-width:1.0;"/><path d="M7941.48,468.1094 L7941.48,478.1094 L7951.48,478.1094 L7941.48,468.1094 " fill="#FFFFFF" style="stroke:#000000;stroke-width:1.0;"/><text fill="#000000" font-family="Verdana" font-size="13" lengthAdjust="spacing" textLength="174" x="7762.48" y="485.1763">Fine calculation: $1 per day</text><text fill="#000000" font-family="Verdana" font-size="13" lengthAdjust="spacing" textLength="115" x="7762.48" y="500.3091">for overdue books</text></g><g id="elem_GMN134"><path d="M7986.48,460.6094 L7986.48,516.0078 L8173.48,516.0078 L8173.48,470.6094 L8163.48,460.6094 L7986.48,460.6094 " fill="#FFFFFF" style="stroke:#000000;stroke-width:1.0;"/><path d="M8163.48,460.6094 L8163.48,470.6094 L8173.48,470.6094 L8163.48,460.6094 " fill="#FFFFFF" style="stroke:#000000;stroke-width:1.0;"/><text fill="#000000" font-family="Verdana" font-size="13" lengthAdjust="spacing" textLength="166" x="7992.48" y="477.6763">Validates member status,</text><text fill="#000000" font-family="Verdana" font-size="13" lengthAdjust="spacing" textLength="133" x="7992.48" y="492.8091">book availability, and</text><text fill="#000000" font-family="Verdana" font-size="13" lengthAdjust="spacing" textLength="166" x="7992.48" y="507.9419">loan limits before creating</text></g><g id="elem_GMN137"><path d="M7756.98,298.6094 L7756.98,338.875 L7948.98,338.875 L7948.98,308.6094 L7938.98,298.6094 L7756.98,298.6094 " fill="#FFFFFF" style="stroke:#000000;stroke-width:1.0;"/><path d="M7938.98,298.6094 L7938.98,308.6094 L7948.98,308.6094 L7938.98,298.6094 " fill="#FFFFFF" style="stroke:#000000;stroke-width:1.0;"/><text fill="#000000" font-family="Verdana" font-size="13" lengthAdjust="spacing" textLength="171" x="7762.98" y="315.6763">Supports multiple formats:</text><text fill="#000000" font-family="Verdana" font-size="13" lengthAdjust="spacing" textLength="101" x="7762.98" y="330.8091">CSV, Excel, PDF</text></g><g id="elem_GMN140"><path d="M7983.98,291.1094 L7983.98,346.5078 L8133.98,346.5078 L8133.98,301.1094 L8123.98,291.1094 L7983.98,291.1094 " fill="#FFFFFF" style="stroke:#000000;stroke-width:1.0;"/><path d="M8123.98,291.1094 L8123.98,301.1094 L8133.98,301.1094 L8123.98,291.1094 " fill="#FFFFFF" style="stroke:#000000;stroke-width:1.0;"/><text fill="#000000" font-family="Verdana" font-size="13" lengthAdjust="spacing" textLength="129" x="7989.98" y="308.1763">Configure fine rates,</text><text fill="#000000" font-family="Verdana" font-size="13" lengthAdjust="spacing" textLength="110" x="7989.98" y="323.3091">loan periods, and</text><text fill="#000000" font-family="Verdana" font-size="13" lengthAdjust="spacing" textLength="126" x="7989.98" y="338.4419">system parameters</text></g><g id="elem_GMN143"><path d="M5198.48,600.1094 L5198.48,655.5078 A0,0 0 0 0 5198.48,655.5078 L5379.48,655.5078 A0,0 0 0 0 5379.48,655.5078 L5379.48,610.1094 L5369.48,600.1094 L5292.98,600.1094 L5288.98,505.1494 L5284.98,600.1094 L5198.48,600.1094 A0,0 0 0 0 5198.48,600.1094 " fill="#FFFFFF" style="stroke:#000000;stroke-width:1.0;"/><path d="M5369.48,600.1094 L5369.48,610.1094 L5379.48,610.1094 L5369.48,600.1094 " fill="#FFFFFF" style="stroke:#000000;stroke-width:1.0;"/><text fill="#000000" font-family="Verdana" font-size="13" lengthAdjust="spacing" textLength="151" x="5204.48" y="617.1763">Members can view their</text><text fill="#000000" font-family="Verdana" font-size="13" lengthAdjust="spacing" textLength="160" x="5204.48" y="632.3091">current loans, due dates,</text><text fill="#000000" font-family="Verdana" font-size="13" lengthAdjust="spacing" textLength="112" x="5204.48" y="647.4419">and fine amounts</text></g><!--link librarian to UC1--><g id="link_librarian_UC1"><path d="M2002.33,96.3294 C1771.84,98.2294 226.97,113.7494 166.98,188.6094 C117.23,250.6894 118.02,304.8994 166.98,367.6094 C195.73,404.4394 222.62,387.2194 268.98,393.1094 C297.97,396.7894 1293.54,391.0394 1320.98,401.1094 C1355.77,413.8794 1387.1,443.9894 1405.83,464.9594 " fill="none" id="librarian-to-UC1" style="stroke:#000000;stroke-width:1.0;"/><polygon fill="#000000" points="1409.18,468.7594,1406.2259,459.364,1405.8724,465.0098,1400.2266,464.6562,1409.18,468.7594" style="stroke:#000000;stroke-width:1.0;"/><text fill="#000000" font-family="Verdana" font-size="13" lengthAdjust="spacing" textLength="56" x="167.98" y="323.1763">registers</text></g><!--link librarian to UC2--><g id="link_librarian_UC2"><path d="M2002.14,96.3994 C1778.3,98.8194 325.44,117.2194 269.98,188.6094 C221.17,251.4294 221.02,304.8994 269.98,367.6094 C298.73,404.4394 325.62,387.2394 371.98,393.1094 C403.81,397.1394 1496.44,391.2494 1526.98,401.1094 C1564.07,413.0894 1599.57,440.9294 1622.41,461.7094 " fill="none" id="librarian-to-UC2" style="stroke:#000000;stroke-width:1.0;"/><polygon fill="#000000" points="1626.25,465.2494,1622.328,456.2151,1622.5678,461.8669,1616.916,462.1066,1626.25,465.2494" style="stroke:#000000;stroke-width:1.0;"/><text fill="#000000" font-family="Verdana" font-size="13" lengthAdjust="spacing" textLength="52" x="270.98" y="323.1763">updates</text></g><!--link librarian to UC3--><g id="link_librarian_UC3"><path d="M2002.22,96.2494 C1764.04,97.5794 124.8,109.5694 60.98,188.6094 C11,250.5094 11.81,305.0694 60.98,367.6094 C128.83,453.9194 907.92,479.5294 1156.35,485.5294 " fill="none" id="librarian-to-UC3" style="stroke:#000000;stroke-width:1.0;"/><polygon fill="#000000" points="1161.41,485.6494,1152.5038,481.4448,1156.4113,485.5351,1152.3209,489.4427,1161.41,485.6494" style="stroke:#000000;stroke-width:1.0;"/><text fill="#000000" font-family="Verdana" font-size="13" lengthAdjust="spacing" textLength="58" x="61.98" y="323.1763">searches</text></g><!--link librarian to UC4--><g id="link_librarian_UC4"><path d="M2002.44,95.8794 C1821.63,94.6394 833.65,91.2994 541.98,163.6094 C516.7,169.8794 502.92,166.6094 488.98,188.6094 C446.38,255.7994 436.75,307.5994 488.98,367.6094 C515.93,398.5794 631.03,390.1194 671.98,393.1094 C702.37,395.3294 1740.42,390.4794 1768.98,401.1094 C1803.52,413.9694 1834.34,444.3594 1852.6,465.3394 " fill="none" id="librarian-to-UC4" style="stroke:#000000;stroke-width:1.0;"/><polygon fill="#000000" points="1855.86,469.1394,1853.0223,459.7082,1852.599,465.3492,1846.958,464.9258,1855.86,469.1394" style="stroke:#000000;stroke-width:1.0;"/><text fill="#000000" font-family="Verdana" font-size="13" lengthAdjust="spacing" textLength="34" x="489.98" y="323.1763">views</text></g><!--link librarian to UC5--><g id="link_librarian_UC5"><path d="M2002.33,96.0794 C1814.09,96.0394 752.29,98.7694 435.98,163.6094 C405.25,169.9094 387.8,162.7994 369.98,188.6094 C324.77,254.0694 316.14,309.0394 369.98,367.6094 C415.55,417.1994 604.69,390.0694 671.98,393.1094 C690.01,393.9294 1955.34,394.0994 1971.98,401.1094 C2004.13,414.6494 2030.35,446.8494 2044.8,467.7794 " fill="none" id="librarian-to-UC5" style="stroke:#000000;stroke-width:1.0;"/><polygon fill="#000000" points="2047.7,472.0594,2045.9515,462.367,2044.8904,467.9234,2039.334,466.8623,2047.7,472.0594" style="stroke:#000000;stroke-width:1.0;"/><text fill="#000000" font-family="Verdana" font-size="13" lengthAdjust="spacing" textLength="47" x="370.98" y="323.1763">deletes</text></g><!--link librarian to UC6--><g id="link_librarian_UC6"><path d="M2002.26,96.7094 C1840.82,100.2294 1044.93,119.5794 803.98,163.6094 C767.75,170.2294 746.74,158.8994 724.98,188.6094 C677.97,252.7894 678.15,303.2894 724.98,367.6094 C746.69,397.4394 767.55,387.2594 803.98,393.1094 C840.67,398.9994 2106.98,388.5794 2141.98,401.1094 C2177.26,413.7394 2209.41,443.5894 2228.82,464.5594 " fill="none" id="librarian-to-UC6" style="stroke:#000000;stroke-width:1.0;"/><polygon fill="#000000" points="2232.3,468.3694,2229.1949,459.0228,2228.9324,464.6736,2223.2816,464.411,2232.3,468.3694" style="stroke:#000000;stroke-width:1.0;"/><text fill="#000000" font-family="Verdana" font-size="13" lengthAdjust="spacing" textLength="60" x="725.98" y="323.1763">manages</text></g><!--link librarian to UC7--><g id="link_librarian_UC7"><path d="M2002.21,95.9194 C1828.99,95.0994 929.61,95.3594 856.98,188.6094 C808.09,251.3694 804.01,308.2494 856.98,367.6094 C890.18,404.8294 1030.19,390.1194 1079.98,393.1094 C1115.3,395.2294 2320.83,388.6994 2353.98,401.1094 C2388.15,413.9094 2418.53,444.0994 2436.6,465.0694 " fill="none" id="librarian-to-UC7" style="stroke:#000000;stroke-width:1.0;"/><polygon fill="#000000" points="2440.04,469.1394,2437.261,459.6907,2436.8026,465.329,2431.1643,464.8706,2440.04,469.1394" style="stroke:#000000;stroke-width:1.0;"/><text fill="#000000" font-family="Verdana" font-size="13" lengthAdjust="spacing" textLength="80" x="857.98" y="323.1763">views details</text></g><!--link librarian to UC8--><g id="link_librarian_UC8"><path d="M2002.4,95.9994 C1945.36,97.5194 1818.06,110.0194 1761.98,188.6094 C1715.76,253.3694 1715.65,302.9294 1761.98,367.6094 C1782.48,396.2294 1802.25,387.3294 1836.98,393.1094 C1896.31,402.9794 6109.4,387.4394 6167.98,401.1094 C6220.51,413.3694 6275.44,443.6894 6309.44,464.8294 " fill="none" id="librarian-to-UC8" style="stroke:#000000;stroke-width:1.0;"/><polygon fill="#000000" points="6313.89,467.6194,6308.3854,459.4524,6309.6524,464.9655,6304.1393,466.2325,6313.89,467.6194" style="stroke:#000000;stroke-width:1.0;"/><text fill="#000000" font-family="Verdana" font-size="13" lengthAdjust="spacing" textLength="56" x="1762.98" y="323.1763">registers</text></g><!--link librarian to UC9--><g id="link_librarian_UC9"><path d="M2011.2,133.7794 C1984.69,190.0694 1946.35,297.0594 1995.98,367.6094 C2015.27,395.0294 2033.95,387.3294 2066.98,393.1094 C2129.7,404.0894 6590.98,382.8194 6651.98,401.1094 C6690.56,412.6794 6728.34,439.6394 6753.34,460.3094 " fill="none" id="librarian-to-UC9" style="stroke:#000000;stroke-width:1.0;"/><polygon fill="#000000" points="6757.23,463.5694,6752.8735,454.7364,6753.3877,460.3699,6747.7543,460.8841,6757.23,463.5694" style="stroke:#000000;stroke-width:1.0;"/><text fill="#000000" font-family="Verdana" font-size="13" lengthAdjust="spacing" textLength="52" x="1996.98" y="323.1763">updates</text></g><!--link librarian to UC10--><g id="link_librarian_UC10"><path d="M2002.23,105.4694 C1968.36,118.2394 1913.69,144.6894 1889.98,188.6094 C1852.18,258.6094 1847.64,300.2594 1889.98,367.6094 C1903.89,389.7394 1917.5,387.2794 1942.98,393.1094 C1973.53,400.1094 6426.66,390.0394 6455.98,401.1094 C6490.12,413.9994 6520.14,444.7694 6537.67,465.7894 " fill="none" id="librarian-to-UC10" style="stroke:#000000;stroke-width:1.0;"/><polygon fill="#000000" points="6541.01,469.8494,6538.3838,460.3571,6537.8345,465.9872,6532.2043,465.438,6541.01,469.8494" style="stroke:#000000;stroke-width:1.0;"/><text fill="#000000" font-family="Verdana" font-size="13" lengthAdjust="spacing" textLength="34" x="1890.98" y="323.1763">views</text></g><!--link librarian to UC11--><g id="link_librarian_UC11"><path d="M2041.27,133.7194 C2060.86,204.1994 2103.03,350.6194 2119.98,367.6094 C2145.43,393.1394 2161.39,387.3394 2196.98,393.1094 C2229.31,398.3494 6883.39,389.3794 6913.98,401.1094 C6947.86,414.0994 6977.34,445.1494 6994.4,466.1594 " fill="none" id="librarian-to-UC11" style="stroke:#000000;stroke-width:1.0;"/><polygon fill="#000000" points="6997.64,470.2194,6995.1285,460.6961,6994.5113,466.3192,6988.8882,465.702,6997.64,470.2194" style="stroke:#000000;stroke-width:1.0;"/><text fill="#000000" font-family="Verdana" font-size="13" lengthAdjust="spacing" textLength="58" x="2120.98" y="323.1763">activates</text></g><!--link librarian to UC12--><g id="link_librarian_UC12"><path d="M2059.5,106.5094 C2093.6,120.3194 2150.28,147.7994 2183.98,188.6094 C2237.96,253.9994 2187.51,310.2694 2249.98,367.6094 C2281.55,396.5894 2300.5,387.3594 2342.98,393.1094 C2375.75,397.5494 7074.86,389.8794 7105.98,401.1094 C7141.04,413.7594 7172.69,443.8994 7191.62,464.9094 " fill="none" id="librarian-to-UC12" style="stroke:#000000;stroke-width:1.0;"/><polygon fill="#000000" points="7195.01,468.7194,7192.0181,459.3359,7191.6873,464.9831,7186.0401,464.6523,7195.01,468.7194" style="stroke:#000000;stroke-width:1.0;"/><text fill="#000000" font-family="Verdana" font-size="13" lengthAdjust="spacing" textLength="74" x="2250.98" y="323.1763">deactivates</text></g><!--link librarian to UC13--><g id="link_librarian_UC13"><path d="M2002.41,98.0494 C1918.54,104.4394 1676.08,127.9194 1631.98,188.6094 C1585.21,252.9694 1585.4,303.1194 1631.98,367.6094 C1653.08,396.8294 1673.39,387.3394 1708.98,393.1094 C1738.06,397.8294 5923.95,392.0094 5951.98,401.1094 C5991.4,413.8994 6028.75,445.1394 6050.75,466.2294 " fill="none" id="librarian-to-UC13" style="stroke:#000000;stroke-width:1.0;"/><polygon fill="#000000" points="6054.42,469.7794,6050.7367,460.6452,6050.8279,466.3013,6045.1718,466.3925,6054.42,469.7794" style="stroke:#000000;stroke-width:1.0;"/><text fill="#000000" font-family="Verdana" font-size="13" lengthAdjust="spacing" textLength="58" x="1632.98" y="323.1763">searches</text></g><!--link librarian to UC15--><g id="link_librarian_UC15"><path d="M2059.8,96.9094 C2118.44,100.0894 2252.6,115.4294 2329.98,188.6094 C2400.42,255.2294 2326.41,337.6994 2405.98,393.1094 C2419.96,402.8494 7297.88,395.5094 7313.98,401.1094 C7349.77,413.5594 7382.71,443.1494 7402.8,464.1394 " fill="none" id="librarian-to-UC15" style="stroke:#000000;stroke-width:1.0;"/><polygon fill="#000000" points="7406.4,467.9494,7403.1252,458.6609,7402.9656,464.3155,7397.311,464.1559,7406.4,467.9494" style="stroke:#000000;stroke-width:1.0;"/><text fill="#000000" font-family="Verdana" font-size="13" lengthAdjust="spacing" textLength="80" x="2380.98" y="323.1763">views details</text></g><!--link librarian to UC16--><g id="link_librarian_UC16"><path d="M2002.04,97.1394 C1867.96,102.2394 1311.72,127.0294 1268.98,188.6094 C1223.61,253.9594 1223.82,302.1094 1268.98,367.6094 C1287.06,393.8394 1304.65,387.2794 1335.98,393.1094 C1384.31,402.1094 3059.96,383.7994 3105.98,401.1094 C3139.94,413.8894 3169.98,444.0894 3187.83,465.0594 " fill="none" id="librarian-to-UC16" style="stroke:#000000;stroke-width:1.0;"/><polygon fill="#000000" points="3191.23,469.1294,3188.5066,459.6645,3188.015,465.3,3182.3796,464.8085,3191.23,469.1294" style="stroke:#000000;stroke-width:1.0;"/><text fill="#000000" font-family="Verdana" font-size="13" lengthAdjust="spacing" textLength="48" x="1269.98" y="323.1763">creates</text></g><!--link librarian to UC17--><g id="link_librarian_UC17"><path d="M2002.34,95.6594 C1891.14,94.5894 1490.41,97.2094 1413.98,188.6094 C1362.94,249.6394 1362.2,307.2094 1413.98,367.6094 C1462.27,423.9394 1505,387.2594 1578.98,393.1094 C1626.77,396.8894 3258.24,390.4094 3304.98,401.1094 C3363.45,414.5094 3425.21,449.1494 3459.03,470.1494 " fill="none" id="librarian-to-UC17" style="stroke:#000000;stroke-width:1.0;"/><polygon fill="#000000" points="3463.41,472.8894,3457.8857,464.7357,3459.166,470.2458,3453.6559,471.5262,3463.41,472.8894" style="stroke:#000000;stroke-width:1.0;"/><text fill="#000000" font-family="Verdana" font-size="13" lengthAdjust="spacing" textLength="65" x="1414.98" y="323.1763">processes</text></g><!--link librarian to UC18--><g id="link_librarian_UC18"><path d="M2059.69,101.7194 C2133.33,115.9994 2334.98,154.4494 2503.98,180.6094 C2531,184.7894 2540.98,175.5094 2564.98,188.6094 C2610.41,213.4194 2645.02,265.3694 2662.13,295.2194 " fill="none" id="librarian-to-UC18" style="stroke:#000000;stroke-width:1.0;"/><polygon fill="#000000" points="2664.72,299.8094,2663.7833,290.0052,2662.2639,295.4542,2656.8149,293.9348,2664.72,299.8094" style="stroke:#000000;stroke-width:1.0;"/><text fill="#000000" font-family="Verdana" font-size="13" lengthAdjust="spacing" textLength="34" x="2504.98" y="176.6763">views</text></g><!--link librarian to UC19--><g id="link_librarian_UC19"><path d="M2059.61,97.0794 C2138.35,100.3294 2364.16,113.6594 2543.98,163.6094 C2562.19,168.6694 2564.55,176.3594 2582.98,180.6094 C2603.57,185.3594 2754.25,178.8194 2772.98,188.6094 C2817.22,211.7294 2847.22,264.8094 2861.46,295.1794 " fill="none" id="librarian-to-UC19" style="stroke:#000000;stroke-width:1.0;"/><polygon fill="#000000" points="2863.61,299.8594,2863.4644,290.0116,2861.512,295.3208,2856.2028,293.3684,2863.61,299.8594" style="stroke:#000000;stroke-width:1.0;"/><text fill="#000000" font-family="Verdana" font-size="13" lengthAdjust="spacing" textLength="47" x="2583.98" y="176.6763">reviews</text></g><!--link librarian to UC20--><g id="link_librarian_UC20"><path d="M2002.04,96.6294 C1854,99.6294 1186.15,117.0694 1132.98,188.6094 C1085.52,252.4594 1085.7,303.6294 1132.98,367.6094 C1155.91,398.6494 1177.83,387.2694 1215.98,393.1094 C1289.34,404.3494 2478.08,394.1094 2551.98,401.1094 C2703.63,415.4694 2879.74,454.1994 2965.17,474.4194 " fill="none" id="librarian-to-UC20" style="stroke:#000000;stroke-width:1.0;"/><polygon fill="#000000" points="2970.17,475.6094,2962.342,469.6325,2965.3061,474.4506,2960.488,477.4147,2970.17,475.6094" style="stroke:#000000;stroke-width:1.0;"/><text fill="#000000" font-family="Verdana" font-size="13" lengthAdjust="spacing" textLength="64" x="1133.98" y="323.1763">calculates</text></g><!--link librarian to UC21--><g id="link_librarian_UC21"><path d="M2059.68,96.7294 C2212.64,100.1794 2933.14,118.6294 3150.98,163.6094 C3172.73,168.0994 3176.18,176.3494 3197.98,180.6094 C3220.24,184.9594 3381.66,178.5194 3401.98,188.6094 C3447.32,211.1294 3480.13,262.9694 3496.4,293.6394 " fill="none" id="librarian-to-UC21" style="stroke:#000000;stroke-width:1.0;"/><polygon fill="#000000" points="3498.87,298.3694,3498.2467,288.5403,3496.5542,293.938,3491.1565,292.2455,3498.87,298.3694" style="stroke:#000000;stroke-width:1.0;"/><text fill="#000000" font-family="Verdana" font-size="13" lengthAdjust="spacing" textLength="57" x="3198.98" y="176.6763">monitors</text></g><!--link librarian to UC22--><g id="link_librarian_UC22"><path d="M2059.75,97.1094 C2193.78,101.9294 2757.55,124.2394 2928.98,163.6094 C2949,168.2094 2951.87,176.3694 2971.98,180.6094 C2994.28,185.3094 3156.42,178.7494 3176.98,188.6094 C3223.11,210.7494 3257.93,261.6294 3275.73,292.4594 " fill="none" id="librarian-to-UC22" style="stroke:#000000;stroke-width:1.0;"/><polygon fill="#000000" points="3278.23,296.8594,3277.2551,287.0589,3275.757,292.5138,3270.3021,291.0157,3278.23,296.8594" style="stroke:#000000;stroke-width:1.0;"/><text fill="#000000" font-family="Verdana" font-size="13" lengthAdjust="spacing" textLength="65" x="2972.98" y="176.6763">processes</text></g><!--link librarian to UC23--><g id="link_librarian_UC23"><path d="M2059.51,95.5494 C2156.44,94.3394 2481.35,95.9094 2737.98,163.6094 C2755.87,168.3294 2757.97,176.3694 2775.98,180.6094 C2796.87,185.5194 2949.81,178.9494 2968.98,188.6094 C3014.09,211.3494 3046.25,263.5894 3061.99,294.1594 " fill="none" id="librarian-to-UC23" style="stroke:#000000;stroke-width:1.0;"/><polygon fill="#000000" points="3064.38,298.8694,3063.8825,289.0331,3062.1211,294.4087,3056.7454,292.6474,3064.38,298.8694" style="stroke:#000000;stroke-width:1.0;"/><text fill="#000000" font-family="Verdana" font-size="13" lengthAdjust="spacing" textLength="51" x="2776.98" y="176.6763">extends</text></g><!--link librarian to UC24--><g id="link_librarian_UC24"><path d="M2059.8,96.7294 C2308.07,102.1194 4081.8,141.1994 4316.98,163.6094 C4364.04,168.0994 4374.97,175.5694 4421.98,180.6094 C4455.17,184.1694 4541.62,174.7194 4571.98,188.6094 C4619.49,210.3594 4658.11,259.2294 4679,290.1794 " fill="none" id="librarian-to-UC24" style="stroke:#000000;stroke-width:1.0;"/><polygon fill="#000000" points="4681.95,294.6194,4680.3013,284.9095,4679.1831,290.4547,4673.6378,289.3366,4681.95,294.6194" style="stroke:#000000;stroke-width:1.0;"/><text fill="#000000" font-family="Verdana" font-size="13" lengthAdjust="spacing" textLength="65" x="4422.98" y="176.6763">generates</text></g><!--link librarian to UC25--><g id="link_librarian_UC25"><path d="M2059.48,96.6894 C2302.88,101.7294 4025.54,138.1794 4130.98,163.6094 C4148.18,167.7594 4149.79,176.3894 4166.98,180.6094 C4188.58,185.9094 4347.16,178.5194 4366.98,188.6094 C4411.66,211.3594 4443.03,263.5994 4458.34,294.1594 " fill="none" id="librarian-to-UC25" style="stroke:#000000;stroke-width:1.0;"/><polygon fill="#000000" points="4460.65,298.8794,4460.2783,289.0375,4458.4483,294.3902,4453.0956,292.5602,4460.65,298.8794" style="stroke:#000000;stroke-width:1.0;"/><text fill="#000000" font-family="Verdana" font-size="13" lengthAdjust="spacing" textLength="48" x="4167.98" y="176.6763">exports</text></g><!--link librarian to UC26--><g id="link_librarian_UC26"><path d="M2059.84,96.7794 C2333.12,103.1194 4457.38,152.6594 4589.98,163.6094 C4644.54,168.1194 4657.54,174.8294 4711.98,180.6094 C4736.13,183.1794 4799.34,177.5794 4820.98,188.6094 C4866.11,211.6094 4899.97,262.3094 4917.21,292.8594 " fill="none" id="librarian-to-UC26" style="stroke:#000000;stroke-width:1.0;"/><polygon fill="#000000" points="4919.84,297.5794,4918.9658,287.7694,4917.4118,293.2086,4911.9726,291.6545,4919.84,297.5794" style="stroke:#000000;stroke-width:1.0;"/><text fill="#000000" font-family="Verdana" font-size="13" lengthAdjust="spacing" textLength="34" x="4712.98" y="176.6763">views</text></g><!--link librarian to UC27--><g id="link_librarian_UC27"><path d="M2059.49,96.0394 C2243.41,95.8094 3264.41,97.5594 3567.98,163.6094 C3587.65,167.8894 3590.26,176.4894 3609.98,180.6094 C3641.42,187.1894 3869.62,175.5594 3898.98,188.6094 C3946.95,209.9394 3985.36,259.6594 4005.81,290.7594 " fill="none" id="librarian-to-UC27" style="stroke:#000000;stroke-width:1.0;"/><polygon fill="#000000" points="4008.7,295.2094,4007.1594,285.4818,4005.9796,291.0142,4000.4471,289.8344,4008.7,295.2094" style="stroke:#000000;stroke-width:1.0;"/><text fill="#000000" font-family="Verdana" font-size="13" lengthAdjust="spacing" textLength="65" x="3610.98" y="176.6763">generates</text></g><!--link librarian to UC28--><g id="link_librarian_UC28"><path d="M2059.71,96.6994 C2229.5,100.2794 3103.3,120.5894 3367.98,163.6094 C3395.76,168.1194 3401.18,176.1894 3428.98,180.6094 C3469.4,187.0294 3574.82,173.7994 3612.98,188.6094 C3667.58,209.8094 3716.83,258.7194 3744.24,289.8594 " fill="none" id="librarian-to-UC28" style="stroke:#000000;stroke-width:1.0;"/><polygon fill="#000000" points="3747.8,293.9394,3744.904,284.5259,3744.5156,290.1694,3738.8721,289.781,3747.8,293.9394" style="stroke:#000000;stroke-width:1.0;"/><text fill="#000000" font-family="Verdana" font-size="13" lengthAdjust="spacing" textLength="34" x="3429.98" y="176.6763">views</text></g><!--link librarian to UC29--><g id="link_librarian_UC29"><path d="M2059.54,96.4994 C2276.96,99.5194 3666.9,120.4594 3847.98,163.6094 C3865.58,167.7994 3867.36,176.4694 3884.98,180.6094 C3913.22,187.2394 4119.82,176.0494 4145.98,188.6094 C4192,210.7094 4226.16,262.0894 4243.4,292.9194 " fill="none" id="librarian-to-UC29" style="stroke:#000000;stroke-width:1.0;"/><polygon fill="#000000" points="4245.82,297.3194,4244.9704,287.5072,4243.4027,292.9425,4237.9674,291.3749,4245.82,297.3194" style="stroke:#000000;stroke-width:1.0;"/><text fill="#000000" font-family="Verdana" font-size="13" lengthAdjust="spacing" textLength="65" x="3885.98" y="176.6763">generates</text></g><!--link member to UC3--><g id="link_member_UC3"><path d="M3704.48,97.2394 C3378.61,104.2994 1628.8,142.6394 1092.98,163.6094 C988.02,167.7194 693.26,112.3994 620.98,188.6094 C566.23,246.3294 571.94,304.9594 620.98,367.6094 C686.19,450.9394 1009.08,476.7094 1157.33,484.2194 " fill="none" id="member-to-UC3" style="stroke:#000000;stroke-width:1.0;"/><polygon fill="#000000" points="1162.53,484.4794,1153.7347,480.0475,1157.5359,484.2368,1153.3465,488.038,1162.53,484.4794" style="stroke:#000000;stroke-width:1.0;"/><text fill="#000000" font-family="Verdana" font-size="13" lengthAdjust="spacing" textLength="58" x="621.98" y="323.1763">searches</text></g><!--link member to UC4--><g id="link_member_UC4"><path d="M3704.32,97.3994 C3327.81,106.6594 1058.91,163.4994 1034.98,188.6094 C980.09,246.1994 986.4,304.6094 1034.98,367.6094 C1062.2,402.9094 1087.8,387.1194 1131.98,393.1094 C1167.05,397.8694 1735.84,388.6794 1768.98,401.1094 C1803.48,414.0594 1834.32,444.4294 1852.59,465.3794 " fill="none" id="member-to-UC4" style="stroke:#000000;stroke-width:1.0;"/><polygon fill="#000000" points="1855.85,469.1694,1853.0299,459.7329,1852.596,465.3731,1846.9559,464.9392,1855.85,469.1694" style="stroke:#000000;stroke-width:1.0;"/><text fill="#000000" font-family="Verdana" font-size="13" lengthAdjust="spacing" textLength="52" x="1035.98" y="323.1763">browses</text></g><!--link member to UC7--><g id="link_member_UC7"><path d="M3704.21,97.2994 C3370.42,104.9194 1564.94,147.9894 1525.98,188.6094 C1470.9,246.0194 1483.64,300.2594 1525.98,367.6094 C1539.89,389.7394 1553.52,387.1694 1578.98,393.1094 C1620.91,402.8994 2313.68,385.9294 2353.98,401.1094 C2388.13,413.9794 2418.51,444.1494 2436.59,465.0994 " fill="none" id="member-to-UC7" style="stroke:#000000;stroke-width:1.0;"/><polygon fill="#000000" points="2440.04,469.1594,2437.2785,459.7056,2436.8096,465.343,2431.1723,464.8742,2440.04,469.1594" style="stroke:#000000;stroke-width:1.0;"/><text fill="#000000" font-family="Verdana" font-size="13" lengthAdjust="spacing" textLength="34" x="1526.98" y="323.1763">views</text></g><!--link member to UC34--><g id="link_member_UC34"><path d="M3704.18,97.1694 C3476.23,101.9894 2585.91,123.3294 2542.98,163.6094 C2525,180.4694 2460.11,213.1594 2539.98,367.6094 C2548.98,385.0294 2557.32,387.0894 2575.98,393.1094 C2603.39,401.9494 3584.18,400.2594 3612.98,401.1094 C4233.09,419.3994 4981.12,466.7594 5215.27,482.1794 " fill="none" id="member-to-UC34" style="stroke:#000000;stroke-width:1.0;"/><polygon fill="#000000" points="5220.37,482.5194,5211.6525,477.9362,5215.3808,482.1906,5211.1264,485.9189,5220.37,482.5194" style="stroke:#000000;stroke-width:1.0;"/><text fill="#000000" font-family="Verdana" font-size="13" lengthAdjust="spacing" textLength="34" x="2540.98" y="323.1763">views</text></g><!--link member to UC35--><g id="link_member_UC35"><path d="M3809.71,96.7294 C4010.57,99.4094 4746.89,112.3894 5350.98,163.6094 C5438.48,171.0294 5472.09,142.7494 5546.98,188.6094 C5588.72,214.1694 5615.35,267.8494 5627.43,297.2594 " fill="none" id="member-to-UC35" style="stroke:#000000;stroke-width:1.0;"/><polygon fill="#000000" points="5629.38,302.1094,5629.7253,292.2666,5627.5108,297.4719,5622.3054,295.2574,5629.38,302.1094" style="stroke:#000000;stroke-width:1.0;"/><text fill="#000000" font-family="Verdana" font-size="13" lengthAdjust="spacing" textLength="44" x="5529.98" y="176.6763">checks</text></g><!--link member to UC36--><g id="link_member_UC36"><path d="M3809.9,97.0794 C4071.23,101.9894 5225.74,125.5194 5582.98,163.6094 C5646.26,170.3594 5668.4,157.5894 5723.98,188.6094 C5768.67,213.5594 5804.87,262.5494 5824.05,292.4494 " fill="none" id="member-to-UC36" style="stroke:#000000;stroke-width:1.0;"/><polygon fill="#000000" points="5826.75,296.7194,5825.2864,286.9799,5824.0628,292.5028,5818.5399,291.2793,5826.75,296.7194" style="stroke:#000000;stroke-width:1.0;"/><text fill="#000000" font-family="Verdana" font-size="13" lengthAdjust="spacing" textLength="58" x="5708.98" y="176.6763">searches</text></g><!--link member to UC37--><g id="link_member_UC37"><path d="M3809.63,97.7494 C3969.09,103.0594 4460.64,121.8894 4865.98,163.6094 C4942.82,171.5194 4967.89,156.1294 5037.98,188.6094 C5089.81,212.6294 5136.81,261.1194 5162.78,291.3194 " fill="none" id="member-to-UC37" style="stroke:#000000;stroke-width:1.0;"/><polygon fill="#000000" points="5166.15,295.2794,5163.3504,285.8368,5162.9043,291.476,5157.2651,291.0299,5166.15,295.2794" style="stroke:#000000;stroke-width:1.0;"/><text fill="#000000" font-family="Verdana" font-size="13" lengthAdjust="spacing" textLength="34" x="5018.98" y="176.6763">views</text></g><!--link member to UC38--><g id="link_member_UC38"><path d="M3809.56,97.8894 C3986.42,104.0894 4575.92,126.3594 5061.98,163.6094 C5171.55,172.0094 5209.67,139.4794 5307.98,188.6094 C5354.22,211.7194 5391.43,260.8594 5411.28,291.3694 " fill="none" id="member-to-UC38" style="stroke:#000000;stroke-width:1.0;"/><polygon fill="#000000" points="5414.08,295.7294,5412.5929,285.9934,5411.3827,291.5193,5405.8568,290.3091,5414.08,295.7294" style="stroke:#000000;stroke-width:1.0;"/><text fill="#000000" font-family="Verdana" font-size="13" lengthAdjust="spacing" textLength="56" x="5285.98" y="176.6763">requests</text></g><!--link admin to UC1--><g id="link_admin_UC1"><path d="M8403.6,102.6194 C8503.9,113.6094 8681.3,139.5694 8719.98,188.6094 C8769.24,251.0794 8776.14,311.2594 8719.98,367.6094 C8707.6,380.0194 6213.2,372.8694 6195.98,376.1094 C6175.37,379.9894 6172.58,389.2494 6151.98,393.1094 C6120.41,399.0194 1558.18,390.2094 1527.98,401.1094 C1492.91,413.7594 1461.26,443.9094 1442.33,464.9094 " fill="none" id="admin-to-UC1" style="stroke:#000000;stroke-width:1.0;"/><polygon fill="#000000" points="1438.94,468.7194,1447.9176,464.6693,1442.2698,464.9894,1441.9497,459.3416,1438.94,468.7194" style="stroke:#000000;stroke-width:1.0;"/><text fill="#000000" font-family="Verdana" font-size="13" lengthAdjust="spacing" textLength="60" x="8759.98" y="323.1763">manages</text></g><!--link admin to UC2--><g id="link_admin_UC2"><path d="M8403.7,96.5894 C8505.94,99.1794 8701.38,111.2994 8857.98,163.6094 C8879.31,170.7394 8890.66,169.1694 8901.98,188.6094 C8941.99,257.3694 8958.14,311.2694 8901.98,367.6094 C8889.06,380.5694 6285.15,374.0194 6266.98,376.1094 C6233.45,379.9694 6226.5,389.2794 6192.98,393.1094 C6162.45,396.5994 1798.24,391.7394 1768.98,401.1094 C1731.62,413.0694 1695.91,441.2094 1673.1,462.0594 " fill="none" id="admin-to-UC2" style="stroke:#000000;stroke-width:1.0;"/><polygon fill="#000000" points="1669.27,465.5994,1678.5912,462.419,1672.9385,462.2021,1673.1555,456.5494,1669.27,465.5994" style="stroke:#000000;stroke-width:1.0;"/><text fill="#000000" font-family="Verdana" font-size="13" lengthAdjust="spacing" textLength="60" x="8938.98" y="323.1763">manages</text></g><!--link admin to UC3--><g id="link_admin_UC3"><path d="M8264.17,133.2594 C8242.2,147.9294 8219.61,166.5894 8203.98,188.6094 C8156.01,256.1494 8218.12,317.7294 8151.98,367.6094 C8140.9,375.9594 6168.83,375.4994 6154.98,376.1094 C6064.53,380.0794 6042.43,389.2494 5951.98,393.1094 C5935.91,393.7994 1335.88,395.0694 1320.98,401.1094 C1288.07,414.4394 1260.56,446.3994 1245.19,467.3794 " fill="none" id="admin-to-UC3" style="stroke:#000000;stroke-width:1.0;"/><polygon fill="#000000" points="1242.1,471.6794,1250.6109,466.723,1245.0264,467.6252,1244.1242,462.0408,1242.1,471.6794" style="stroke:#000000;stroke-width:1.0;"/><text fill="#000000" font-family="Verdana" font-size="13" lengthAdjust="spacing" textLength="58" x="8204.98" y="323.1763">searches</text></g><!--link admin to UC4--><g id="link_admin_UC4"><path d="M8403.69,107.5294 C8484.43,122.3394 8609.98,150.8194 8637.98,188.6094 C8685.34,252.5294 8694.13,311.2494 8637.98,367.6094 C8626.41,379.2194 6294.32,374.9194 6277.98,376.1094 C6224.69,379.9894 6212.26,389.2694 6158.98,393.1094 C6129.97,395.1994 1999.28,391.1094 1971.98,401.1094 C1937.17,413.8594 1906.02,444.2794 1887.56,465.2894 " fill="none" id="admin-to-UC4" style="stroke:#000000;stroke-width:1.0;"/><polygon fill="#000000" points="1884.26,469.0994,1893.1789,464.9218,1887.5363,465.3223,1887.1357,459.6797,1884.26,469.0994" style="stroke:#000000;stroke-width:1.0;"/><text fill="#000000" font-family="Verdana" font-size="13" lengthAdjust="spacing" textLength="34" x="8676.98" y="323.1763">views</text></g><!--link admin to UC5--><g id="link_admin_UC5"><path d="M8403.66,99.6494 C8549.48,107.6394 8882.16,129.1194 8989.98,163.6094 C9011.4,170.4594 9022.66,169.1694 9033.98,188.6094 C9073.99,257.3694 9090.14,311.2694 9033.98,367.6094 C9020.66,380.9594 6337.51,372.6194 6318.98,376.1094 C6298.37,379.9894 6295.58,389.2494 6274.98,393.1094 C6246.77,398.3994 2168.45,390.0194 2141.98,401.1094 C2109.8,414.5894 2083.58,446.7994 2069.14,467.7594 " fill="none" id="admin-to-UC5" style="stroke:#000000;stroke-width:1.0;"/><polygon fill="#000000" points="2066.24,472.0394,2074.5937,466.8226,2069.0398,467.8968,2067.9656,462.3429,2066.24,472.0394" style="stroke:#000000;stroke-width:1.0;"/><text fill="#000000" font-family="Verdana" font-size="13" lengthAdjust="spacing" textLength="60" x="9070.98" y="323.1763">manages</text></g><!--link admin to UC6--><g id="link_admin_UC6"><path d="M8403.59,98.2594 C8570.34,104.0094 8988.71,122.2294 9121.98,163.6094 C9210.56,191.1194 9231.46,301.9294 9165.98,367.6094 C9152.22,381.4094 6379.13,372.5094 6359.98,376.1094 C6339.37,379.9794 6336.58,389.2494 6315.98,393.1094 C6261.9,403.2494 2406.85,382.7894 2354.98,401.1094 C2319.43,413.6594 2286.97,443.5294 2267.34,464.5294 " fill="none" id="admin-to-UC6" style="stroke:#000000;stroke-width:1.0;"/><polygon fill="#000000" points="2263.83,468.3394,2272.8725,464.4364,2267.2202,464.6643,2266.9923,459.012,2263.83,468.3394" style="stroke:#000000;stroke-width:1.0;"/><text fill="#000000" font-family="Verdana" font-size="13" lengthAdjust="spacing" textLength="60" x="9204.98" y="323.1763">manages</text></g><!--link admin to UC7--><g id="link_admin_UC7"><path d="M8403.74,97.2694 C8589.92,100.9794 9095.09,115.3394 9253.98,163.6094 C9342.72,190.5694 9363.46,301.9194 9297.98,367.6094 C9291.18,374.4294 6533.59,375.5894 6523.98,376.1094 C6452.57,379.9994 6435.38,389.2494 6363.98,393.1094 C6337.71,394.5294 2601.04,393.1294 2575.98,401.1094 C2536.06,413.8094 2497.91,444.7594 2475.21,465.8494 " fill="none" id="admin-to-UC7" style="stroke:#000000;stroke-width:1.0;"/><polygon fill="#000000" points="2471.43,469.4094,2480.7253,466.1539,2475.071,465.9826,2475.2423,460.3283,2471.43,469.4094" style="stroke:#000000;stroke-width:1.0;"/><text fill="#000000" font-family="Verdana" font-size="13" lengthAdjust="spacing" textLength="34" x="9336.98" y="323.1763">views</text></g><!--link admin to UC8--><g id="link_admin_UC8"><path d="M8403.66,95.8594 C8621.44,95.7594 9286.93,100.7294 9491.98,163.6094 C9580.48,190.7494 9599.34,302.0594 9533.98,367.6094 C9519.62,382.0094 6625.96,372.3494 6605.98,376.1094 C6585.37,379.9794 6582.43,388.4894 6561.98,393.1094 C6515.89,403.5094 6500.14,384.3394 6455.98,401.1094 C6420.61,414.5394 6387.04,442.7694 6365.82,463.2294 " fill="none" id="admin-to-UC8" style="stroke:#000000;stroke-width:1.0;"/><polygon fill="#000000" points="6362.01,466.9594,6371.2445,463.5353,6365.588,463.4669,6365.6565,457.8104,6362.01,466.9594" style="stroke:#000000;stroke-width:1.0;"/><text fill="#000000" font-family="Verdana" font-size="13" lengthAdjust="spacing" textLength="60" x="9572.98" y="323.1763">manages</text></g><!--link admin to UC9--><g id="link_admin_UC9"><path d="M8403.5,97.5194 C8670.77,103.1794 9623.75,125.8694 9753.98,163.6094 C9843.06,189.4294 9844.29,287.2494 9797.98,367.6094 C9786.69,387.1894 9775.8,387.2094 9753.98,393.1094 C9677.82,413.6994 6989.53,378.4094 6913.98,401.1094 C6875.39,412.6994 6837.62,439.6594 6812.62,460.3194 " fill="none" id="admin-to-UC9" style="stroke:#000000;stroke-width:1.0;"/><polygon fill="#000000" points="6808.72,463.5794,6818.1848,460.856,6812.5494,460.3644,6813.0409,454.729,6808.72,463.5794" style="stroke:#000000;stroke-width:1.0;"/><text fill="#000000" font-family="Verdana" font-size="13" lengthAdjust="spacing" textLength="60" x="9828.98" y="323.1763">manages</text></g><!--link admin to UC10--><g id="link_admin_UC10"><path d="M8403.5,95.5594 C8636.88,94.3494 9390.54,95.9194 9621.98,163.6094 C9711,189.6494 9731.2,301.6594 9665.98,367.6094 C9607.12,427.1194 6731.22,371.3794 6652.98,401.1094 C6618.86,414.0794 6588.65,444.5294 6570.83,465.4794 " fill="none" id="admin-to-UC10" style="stroke:#000000;stroke-width:1.0;"/><polygon fill="#000000" points="6567.43,469.5394,6576.2725,465.2023,6570.6379,465.7041,6570.1361,460.0696,6567.43,469.5394" style="stroke:#000000;stroke-width:1.0;"/><text fill="#000000" font-family="Verdana" font-size="13" lengthAdjust="spacing" textLength="60" x="9704.98" y="323.1763">manages</text></g><!--link admin to UC11--><g id="link_admin_UC11"><path d="M8403.6,97.2194 C8686.61,101.9694 9742.53,122.3494 9885.98,163.6094 C9975.11,189.2494 9976.29,287.2494 9929.98,367.6094 C9918.69,387.1894 9907.79,387.2094 9885.98,393.1094 C9848.7,403.1894 7142.02,387.2694 7105.98,401.1094 C7072.1,414.1194 7042.61,445.1594 7025.55,466.1694 " fill="none" id="admin-to-UC11" style="stroke:#000000;stroke-width:1.0;"/><polygon fill="#000000" points="7022.31,470.2294,7031.0537,465.6964,7025.4317,466.3236,7024.8045,460.7017,7022.31,470.2294" style="stroke:#000000;stroke-width:1.0;"/><text fill="#000000" font-family="Verdana" font-size="13" lengthAdjust="spacing" textLength="60" x="9960.98" y="323.1763">manages</text></g><!--link admin to UC12--><g id="link_admin_UC12"><path d="M8403.64,96.9594 C8701.67,100.8594 9861.27,118.8194 10017.98,163.6094 C10107.16,189.0994 10108.29,287.2494 10061.98,367.6094 C10050.69,387.1894 10039.79,387.2094 10017.98,393.1094 C9981.74,402.9094 7350.31,388.4294 7314.98,401.1094 C7279.69,413.7694 7247.71,443.9094 7228.55,464.9194 " fill="none" id="admin-to-UC12" style="stroke:#000000;stroke-width:1.0;"/><polygon fill="#000000" points="7225.13,468.7194,7234.1239,464.7056,7228.4748,465.0029,7228.1775,459.3539,7225.13,468.7194" style="stroke:#000000;stroke-width:1.0;"/><text fill="#000000" font-family="Verdana" font-size="13" lengthAdjust="spacing" textLength="60" x="10092.98" y="323.1763">manages</text></g><!--link admin to UC13--><g id="link_admin_UC13"><path d="M8403.49,97.1494 C8624.32,100.9194 9300.41,116.2594 9385.98,163.6094 C9466.39,208.1094 9461.7,309.7194 9403.98,367.6094 C9390.06,381.5694 6584.35,372.4694 6564.98,376.1094 C6544.37,379.9794 6541.53,388.9794 6520.98,393.1094 C6457.77,405.7994 6293.27,384.5094 6230.98,401.1094 C6180.73,414.4994 6128.83,446.3194 6098.26,467.2694 " fill="none" id="admin-to-UC13" style="stroke:#000000;stroke-width:1.0;"/><polygon fill="#000000" points="6093.9,470.2794,6103.5782,468.454,6098.0135,467.437,6099.0305,461.8723,6093.9,470.2794" style="stroke:#000000;stroke-width:1.0;"/><text fill="#000000" font-family="Verdana" font-size="13" lengthAdjust="spacing" textLength="58" x="9446.98" y="323.1763">searches</text></g><!--link admin to UC14--><g id="link_admin_UC14"><path d="M8403.64,96.8094 C8741.61,100.4094 10197.59,118.5194 10281.98,163.6094 C10357.02,203.7094 10326.47,284.1194 10299.98,367.6094 C10295.78,380.8294 10294.28,386.7094 10281.98,393.1094 C10250.64,409.4094 7772.45,389.8394 7738.98,401.1094 C7700.27,414.1394 7664.17,446.0194 7643.35,467.0894 " fill="none" id="admin-to-UC14" style="stroke:#000000;stroke-width:1.0;"/><polygon fill="#000000" points="7639.64,470.8894,7648.789,467.2429,7643.1325,467.3113,7643.0641,461.6549,7639.64,470.8894" style="stroke:#000000;stroke-width:1.0;"/><text fill="#000000" font-family="Verdana" font-size="13" lengthAdjust="spacing" textLength="60" x="10329.98" y="323.1763">manages</text></g><!--link admin to UC15--><g id="link_admin_UC15"><path d="M8403.52,96.7394 C8715.7,99.8394 9979.93,115.2794 10149.98,163.6094 C10239.19,188.9694 10240.29,287.2494 10193.98,367.6094 C10182.69,387.1894 10171.79,387.2094 10149.98,393.1094 C10114.88,402.5994 7566.31,389.1394 7531.98,401.1094 C7496.41,413.5094 7463.65,442.8194 7443.52,463.7694 " fill="none" id="admin-to-UC15" style="stroke:#000000;stroke-width:1.0;"/><polygon fill="#000000" points="7439.91,467.5794,7449.0064,463.8037,7443.3515,463.9522,7443.203,458.2973,7439.91,467.5794" style="stroke:#000000;stroke-width:1.0;"/><text fill="#000000" font-family="Verdana" font-size="13" lengthAdjust="spacing" textLength="34" x="10224.98" y="323.1763">views</text></g><!--link admin to UC16--><g id="link_admin_UC16"><path d="M8371.28,133.7694 C8384.26,149.3994 8397.25,168.5594 8403.98,188.6094 C8429.3,264.0294 8460.11,311.2294 8403.98,367.6094 C8394.36,377.2694 6455.36,373.5794 6441.98,376.1094 C6421.38,379.9994 6418.58,389.2394 6397.98,393.1094 C6316.13,408.4794 3481.44,383.8294 3399.98,401.1094 C3339.63,413.9094 3275.18,446.5094 3237.56,467.6994 " fill="none" id="admin-to-UC16" style="stroke:#000000;stroke-width:1.0;"/><polygon fill="#000000" points="3233.11,470.2194,3242.9119,469.2583,3237.4591,467.7525,3238.9649,462.2998,3233.11,470.2194" style="stroke:#000000;stroke-width:1.0;"/><text fill="#000000" font-family="Verdana" font-size="13" lengthAdjust="spacing" textLength="58" x="8435.98" y="323.1763">oversees</text></g><!--link admin to UC17--><g id="link_admin_UC17"><path d="M8403.65,107.1994 C8450.17,118.7494 8507.51,142.0494 8533.98,188.6094 C8573.29,257.7694 8590.11,311.2394 8533.98,367.6094 C8524.07,377.5494 6526.92,374.4994 6512.98,376.1094 C6479.45,379.9794 6472.5,389.2094 6438.98,393.1094 C6362.99,401.9494 5138.44,398.7994 5061.98,401.1094 C4478.02,418.7194 3773.67,466.5894 3553.87,482.1494 " fill="none" id="admin-to-UC17" style="stroke:#000000;stroke-width:1.0;"/><polygon fill="#000000" points="3548.77,482.5094,3558.0226,485.8843,3553.7583,482.1673,3557.4753,477.903,3548.77,482.5094" style="stroke:#000000;stroke-width:1.0;"/><text fill="#000000" font-family="Verdana" font-size="13" lengthAdjust="spacing" textLength="58" x="8570.98" y="323.1763">oversees</text></g><!--link admin to UC18--><g id="link_admin_UC18"><path d="M8264.24,96.6094 C7617.97,101.2494 2696.8,137.4694 2670.98,163.6094 C2636.67,198.3294 2652.81,261.8194 2664.9,295.4094 " fill="none" id="admin-to-UC18" style="stroke:#000000;stroke-width:1.0;"/><polygon fill="#000000" points="2666.65,300.1494,2667.2879,290.3212,2664.9195,295.4584,2659.7823,293.09,2666.65,300.1494" style="stroke:#000000;stroke-width:1.0;"/><text fill="#000000" font-family="Verdana" font-size="13" lengthAdjust="spacing" textLength="57" x="2671.98" y="176.6763">monitors</text></g><!--link admin to UC19--><g id="link_admin_UC19"><path d="M8264.26,96.6394 C7631,101.4794 2896.93,138.5094 2871.98,163.6094 C2837.71,198.0794 2851.6,261.2394 2862.54,294.9694 " fill="none" id="admin-to-UC19" style="stroke:#000000;stroke-width:1.0;"/><polygon fill="#000000" points="2864.26,300.1194,2865.1909,290.3146,2862.6703,295.3788,2857.6061,292.8582,2864.26,300.1194" style="stroke:#000000;stroke-width:1.0;"/><text fill="#000000" font-family="Verdana" font-size="13" lengthAdjust="spacing" textLength="47" x="2872.98" y="176.6763">reviews</text></g><!--link admin to UC20--><g id="link_admin_UC20"><path d="M8331.03,133.6194 C8324.88,201.0994 8308.11,338.6694 8271.98,367.6094 C8261.84,375.7294 6413.96,375.6194 6400.98,376.1094 C6293.23,380.1294 6266.73,389.1894 6158.98,393.1094 C6137.79,393.8794 3125.62,393.1394 3105.98,401.1094 C3073.08,414.4594 3045.57,446.4094 3030.2,467.3794 " fill="none" id="admin-to-UC20" style="stroke:#000000;stroke-width:1.0;"/><polygon fill="#000000" points="3027.1,471.6794,3035.5993,466.7033,3030.017,467.6185,3029.1019,462.0361,3027.1,471.6794" style="stroke:#000000;stroke-width:1.0;"/><text fill="#000000" font-family="Verdana" font-size="13" lengthAdjust="spacing" textLength="60" x="8324.98" y="323.1763">manages</text></g><!--link admin to UC21--><g id="link_admin_UC21"><path d="M8264.46,96.4094 C7675.7,99.0594 3544.75,119.2194 3500.98,163.6094 C3467.21,197.8494 3484.29,259.8794 3497.47,293.8294 " fill="none" id="admin-to-UC21" style="stroke:#000000;stroke-width:1.0;"/><polygon fill="#000000" points="3499.38,298.6294,3499.7775,288.7885,3497.5354,293.9821,3492.3418,291.7399,3499.38,298.6294" style="stroke:#000000;stroke-width:1.0;"/><text fill="#000000" font-family="Verdana" font-size="13" lengthAdjust="spacing" textLength="57" x="3501.98" y="176.6763">monitors</text></g><!--link admin to UC22--><g id="link_admin_UC22"><path d="M8264.47,96.3994 C7662.13,98.9694 3347.28,118.9694 3299.98,163.6094 C3265.42,196.2194 3273.45,257.5194 3281.65,292.1294 " fill="none" id="admin-to-UC22" style="stroke:#000000;stroke-width:1.0;"/><polygon fill="#000000" points="3282.86,297.0394,3284.6115,287.3475,3281.6742,292.182,3276.8397,289.2447,3282.86,297.0394" style="stroke:#000000;stroke-width:1.0;"/><text fill="#000000" font-family="Verdana" font-size="13" lengthAdjust="spacing" textLength="58" x="3300.98" y="176.6763">oversees</text></g><!--link admin to UC23--><g id="link_admin_UC23"><path d="M8264.05,96.6794 C7643.83,101.8094 3106.55,140.1294 3081.98,163.6094 C3047.15,196.8894 3056.82,259.4294 3065.65,293.6894 " fill="none" id="admin-to-UC23" style="stroke:#000000;stroke-width:1.0;"/><polygon fill="#000000" points="3067.05,298.9294,3068.5996,289.2032,3065.7635,294.0977,3060.8689,291.2616,3067.05,298.9294" style="stroke:#000000;stroke-width:1.0;"/><text fill="#000000" font-family="Verdana" font-size="13" lengthAdjust="spacing" textLength="59" x="3082.98" y="176.6763">approves</text></g><!--link admin to UC24--><g id="link_admin_UC24"><path d="M8264.47,96.5194 C7775.46,99.4794 4869.27,118.9294 4790.98,163.6094 C4743.26,190.8394 4716.4,252.7394 4704.17,289.2294 " fill="none" id="admin-to-UC24" style="stroke:#000000;stroke-width:1.0;"/><polygon fill="#000000" points="4702.47,294.4294,4709.0713,287.1203,4704.0254,289.6775,4701.4682,284.6316,4702.47,294.4294" style="stroke:#000000;stroke-width:1.0;"/><text fill="#000000" font-family="Verdana" font-size="13" lengthAdjust="spacing" textLength="65" x="4791.98" y="176.6763">generates</text></g><!--link admin to UC25--><g id="link_admin_UC25"><path d="M8264.26,96.2894 C7753.93,97.7294 4612.06,108.8094 4531.98,163.6094 C4488.58,193.3094 4475.04,258.6494 4470.85,293.9194 " fill="none" id="admin-to-UC25" style="stroke:#000000;stroke-width:1.0;"/><polygon fill="#000000" points="4470.29,298.8894,4475.2702,290.3924,4470.8484,293.9207,4467.3202,289.4989,4470.29,298.8894" style="stroke:#000000;stroke-width:1.0;"/><text fill="#000000" font-family="Verdana" font-size="13" lengthAdjust="spacing" textLength="48" x="4532.98" y="176.6763">exports</text></g><!--link admin to UC26--><g id="link_admin_UC26"><path d="M8264.3,98.9694 C7965.64,111.1094 6763.83,158.7594 5775.98,180.6094 C5756.15,181.0494 5080.3,181.0194 5061.98,188.6094 C5010.34,209.9894 4967.79,262.1194 4945.91,293.1694 " fill="none" id="admin-to-UC26" style="stroke:#000000;stroke-width:1.0;"/><polygon fill="#000000" points="4942.84,297.5994,4951.2674,292.5024,4945.6987,293.4972,4944.7039,287.9285,4942.84,297.5994" style="stroke:#000000;stroke-width:1.0;"/><text fill="#000000" font-family="Verdana" font-size="13" lengthAdjust="spacing" textLength="56" x="6407.98" y="176.6763">analyzes</text></g><!--link admin to UC27--><g id="link_admin_UC27"><path d="M8264.34,96.0194 C7718.14,95.4194 4141.01,94.1894 4055.98,163.6094 C4018.98,193.8094 4016.61,254.3494 4018.86,289.8594 " fill="none" id="admin-to-UC27" style="stroke:#000000;stroke-width:1.0;"/><polygon fill="#000000" points="4019.22,294.9094,4022.5667,285.6466,4018.8627,289.9222,4014.5872,286.2182,4019.22,294.9094" style="stroke:#000000;stroke-width:1.0;"/><text fill="#000000" font-family="Verdana" font-size="13" lengthAdjust="spacing" textLength="65" x="4056.98" y="176.6763">generates</text></g><!--link admin to UC28--><g id="link_admin_UC28"><path d="M8264.07,96.5094 C7693.67,99.8194 3823.94,123.7894 3780.98,163.6094 C3747.2,194.9194 3752.41,253.4294 3759.52,288.6194 " fill="none" id="admin-to-UC28" style="stroke:#000000;stroke-width:1.0;"/><polygon fill="#000000" points="3760.57,293.6394,3762.6031,284.0027,3759.5263,288.7495,3754.7794,285.6726,3760.57,293.6394" style="stroke:#000000;stroke-width:1.0;"/><text fill="#000000" font-family="Verdana" font-size="13" lengthAdjust="spacing" textLength="57" x="3781.98" y="176.6763">monitors</text></g><!--link admin to UC29--><g id="link_admin_UC29"><path d="M8264.2,95.9394 C7732.06,94.7694 4334.08,90.1994 4259.98,163.6094 C4226.2,197.0694 4237.4,258.3094 4247.4,292.6194 " fill="none" id="admin-to-UC29" style="stroke:#000000;stroke-width:1.0;"/><polygon fill="#000000" points="4248.87,297.4794,4250.1018,287.7079,4247.4267,292.6922,4242.4423,290.0171,4248.87,297.4794" style="stroke:#000000;stroke-width:1.0;"/><text fill="#000000" font-family="Verdana" font-size="13" lengthAdjust="spacing" textLength="47" x="4260.98" y="176.6763">reviews</text></g><!--link admin to UC30--><g id="link_admin_UC30"><path d="M8264.25,101.9094 C8128,114.0594 7831.72,144.7494 7739.98,188.6094 C7688.93,213.0094 7643.1,261.8294 7618.05,291.9194 " fill="none" id="admin-to-UC30" style="stroke:#000000;stroke-width:1.0;"/><polygon fill="#000000" points="7614.8,295.8494,7623.6154,291.4574,7617.984,291.9943,7617.4472,286.3629,7614.8,295.8494" style="stroke:#000000;stroke-width:1.0;"/><text fill="#000000" font-family="Verdana" font-size="13" lengthAdjust="spacing" textLength="66" x="7809.98" y="176.6763">configures</text></g><!--link admin to UC31--><g id="link_admin_UC31"><path d="M8264.47,97.9694 C8087.45,103.1894 7605.35,120.5594 7205.98,163.6094 C7134.42,171.3194 7107.87,151.8794 7045.98,188.6094 C7003.11,214.0494 6972.28,265.7594 6957.28,295.3994 " fill="none" id="admin-to-UC31" style="stroke:#000000;stroke-width:1.0;"/><polygon fill="#000000" points="6955.01,299.9594,6962.6206,293.7081,6957.2518,295.4901,6955.4698,290.1213,6955.01,299.9594" style="stroke:#000000;stroke-width:1.0;"/><text fill="#000000" font-family="Verdana" font-size="13" lengthAdjust="spacing" textLength="58" x="7206.98" y="176.6763">performs</text></g><!--link admin to UC32--><g id="link_admin_UC32"><path d="M8264.09,98.6494 C8037.87,107.3394 7335.06,138.1694 7246.98,188.6094 C7203.63,213.4294 7172.23,264.8994 7156.78,294.7794 " fill="none" id="admin-to-UC32" style="stroke:#000000;stroke-width:1.0;"/><polygon fill="#000000" points="7154.44,299.3794,7162.0904,293.1768,7156.7103,294.9245,7154.9626,289.5444,7154.44,299.3794" style="stroke:#000000;stroke-width:1.0;"/><text fill="#000000" font-family="Verdana" font-size="13" lengthAdjust="spacing" textLength="57" x="7337.98" y="176.6763">monitors</text></g><!--link admin to UC33--><g id="link_admin_UC33"><path d="M8264.43,97.2394 C8085.69,101.1294 7614.78,117.9894 7477.98,188.6094 C7432.19,212.2494 7395.79,261.9094 7376.68,292.2494 " fill="none" id="admin-to-UC33" style="stroke:#000000;stroke-width:1.0;"/><polygon fill="#000000" points="7373.99,296.5794,7382.1436,291.055,7376.6336,292.3354,7375.3532,286.8253,7373.99,296.5794" style="stroke:#000000;stroke-width:1.0;"/><text fill="#000000" font-family="Verdana" font-size="13" lengthAdjust="spacing" textLength="60" x="7543.98" y="176.6763">manages</text></g><!--link UC16 to UC3--><g id="link_UC16_UC3"><path d="M3190.65,469.1994 C3173.3,448.0194 3141.88,414.8394 3105.98,401.1094 C2975.31,351.1394 2616.37,395.7794 2476.48,395.1094 C2348.09,394.4994 1439.74,352.3294 1320.98,401.1094 C1288.37,414.4994 1261.18,446.1494 1245.74,467.3494 " fill="none" id="UC16-to-UC3" style="stroke:#000000;stroke-width:1.0;stroke-dasharray:7.0,7.0;"/><polygon fill="#000000" points="1242.82,471.4494,1251.311,466.4592,1245.7302,467.3836,1244.8058,461.8028,1242.82,471.4494" style="stroke:#000000;stroke-width:1.0;"/><text fill="#000000" font-family="Verdana" font-size="13" lengthAdjust="spacing" textLength="61" x="2414.48" y="389.1763">&#171;include&#187;</text></g><!--link UC16 to UC13--><g id="link_UC16_UC13"><path d="M3214.91,469.1694 C3227.91,446.6694 3253.04,410.2694 3286.48,395.1094 C3311.98,383.5494 3321.48,395.0794 3349.48,395.1094 C3494.06,395.2794 5814.59,356.0694 5951.98,401.1094 C5991.06,413.9194 6027.97,444.9294 6050.03,466.2394 " fill="none" id="UC16-to-UC13" style="stroke:#000000;stroke-width:1.0;stroke-dasharray:7.0,7.0;"/><polygon fill="#000000" points="6053.71,469.8394,6050.0635,460.6904,6050.132,466.3469,6044.4755,466.4153,6053.71,469.8394" style="stroke:#000000;stroke-width:1.0;"/><text fill="#000000" font-family="Verdana" font-size="13" lengthAdjust="spacing" textLength="61" x="3287.48" y="389.1763">&#171;include&#187;</text></g><!--link UC17 to UC20--><g id="link_UC17_UC20"><path d="M3478.81,471.9594 C3469.39,449.8994 3449.11,411.2394 3417.48,395.1094 C3392.53,382.3894 3382.47,394.7694 3354.48,395.1094 C3244.01,396.4394 3207.77,358.1794 3105.98,401.1094 C3073.5,414.8094 3046.27,446.3694 3030.79,467.4694 " fill="none" id="UC17-to-UC20" style="stroke:#000000;stroke-width:1.0;stroke-dasharray:7.0,7.0;"/><polygon fill="#000000" points="3027.86,471.5494,3036.3709,466.593,3030.7864,467.4952,3029.8842,461.9108,3027.86,471.5494" style="stroke:#000000;stroke-width:1.0;"/><text fill="#000000" font-family="Verdana" font-size="13" lengthAdjust="spacing" textLength="61" x="3355.48" y="389.1763">&#171;include&#187;</text></g><!--link UC8 to UC13--><g id="link_UC8_UC13"><path d="M6247.82,488.1094 C6217.85,488.1094 6184.97,488.1094 6155.78,488.1094 " fill="none" id="UC8-to-UC13" style="stroke:#000000;stroke-width:1.0;stroke-dasharray:7.0,7.0;"/><polygon fill="#000000" points="6150.75,488.1094,6159.75,492.1094,6155.75,488.1094,6159.75,484.1094,6150.75,488.1094" style="stroke:#000000;stroke-width:1.0;"/><text fill="#000000" font-family="Verdana" font-size="13" lengthAdjust="spacing" textLength="61" x="6168.73" y="481.1763">&#171;include&#187;</text></g><!--link UC9 to UC13--><g id="link_UC9_UC13"><path d="M6762.31,463.1894 C6741.74,440.5094 6707.91,408.5794 6670.48,395.1094 C6624.52,378.5794 6278.21,388.6994 6230.98,401.1094 C6180.99,414.2494 6129.6,446.0794 6098.99,467.3694 " fill="none" id="UC9-to-UC13" style="stroke:#000000;stroke-width:1.0;stroke-dasharray:7.0,7.0;"/><polygon fill="#000000" points="6094.62,470.4394,6104.2865,468.5529,6098.7155,467.5711,6099.6973,462.0001,6094.62,470.4394" style="stroke:#000000;stroke-width:1.0;"/><text fill="#000000" font-family="Verdana" font-size="13" lengthAdjust="spacing" textLength="61" x="6608.48" y="389.1763">&#171;include&#187;</text></g><!--link UC24 to UC21--><g id="link_UC24_UC21"><path d="M4679.83,294.7094 C4658.87,266.0594 4619.3,219.5294 4571.98,200.6094 C4475.51,162.0494 3733.82,162.9994 3636.98,200.6094 C3588.44,219.4594 3547.02,266.0394 3524.98,294.7194 " fill="none" id="UC24-to-UC21" style="stroke:#000000;stroke-width:1.0;stroke-dasharray:7.0,7.0;"/><polygon fill="#000000" points="3521.87,298.8094,3530.5,294.0635,3524.8951,294.8283,3524.1302,289.2234,3521.87,298.8094" style="stroke:#000000;stroke-width:1.0;"/><text fill="#000000" font-family="Verdana" font-size="13" lengthAdjust="spacing" textLength="61" x="3960.48" y="176.6763">&#171;include&#187;</text></g><!--link UC27 to UC10--><g id="link_UC27_UC10"><path d="M4064.5,340.2094 C4087.95,350.4994 4117.92,361.9294 4145.98,367.6094 C4331.85,405.2094 4809.37,389.7594 4998.98,393.1094 C5019.21,393.4694 6437.06,393.9294 6455.98,401.1094 C6489.9,413.9894 6519.77,444.4594 6537.36,465.4494 " fill="none" id="UC27-to-UC10" style="stroke:#000000;stroke-width:1.0;stroke-dasharray:7.0,7.0;"/><polygon fill="#000000" points="6540.71,469.5094,6538.0838,460.0171,6537.5345,465.6472,6531.9043,465.098,6540.71,469.5094" style="stroke:#000000;stroke-width:1.0;"/><text fill="#000000" font-family="Verdana" font-size="13" lengthAdjust="spacing" textLength="61" x="4999.98" y="389.1763">&#171;include&#187;</text></g><!--link UC28 to UC4--><g id="link_UC28_UC4"><path d="M3731,342.4094 C3700.81,360.1294 3655.86,383.2894 3612.98,393.1094 C3568.54,403.2794 2014.75,385.3594 1971.98,401.1094 C1937.19,413.9094 1906.03,444.3194 1887.56,465.3094 " fill="none" id="UC28-to-UC4" style="stroke:#000000;stroke-width:1.0;stroke-dasharray:7.0,7.0;"/><polygon fill="#000000" points="1884.26,469.1194,1893.1789,464.9418,1887.5363,465.3423,1887.1357,459.6997,1884.26,469.1194" style="stroke:#000000;stroke-width:1.0;"/><text fill="#000000" font-family="Verdana" font-size="13" lengthAdjust="spacing" textLength="61" x="3661.98" y="389.1763">&#171;include&#187;</text></g><!--link UC29 to UC21--><g id="link_UC29_UC21"><path d="M4244,297.4794 C4226.62,269.2194 4191.44,220.3794 4145.98,200.6094 C4042.25,155.4994 3742.41,159.6594 3636.98,200.6094 C3588.44,219.4594 3547.02,266.0394 3524.98,294.7194 " fill="none" id="UC29-to-UC21" style="stroke:#000000;stroke-width:1.0;stroke-dasharray:7.0,7.0;"/><polygon fill="#000000" points="3521.87,298.8094,3530.5,294.0635,3524.8951,294.8283,3524.1302,289.2234,3521.87,298.8094" style="stroke:#000000;stroke-width:1.0;"/><text fill="#000000" font-family="Verdana" font-size="13" lengthAdjust="spacing" textLength="61" x="3685.48" y="176.6763">&#171;include&#187;</text></g><!--link UC23 to UC16--><g id="link_UC23_UC16"><path d="M3087.35,337.8494 C3111.72,368.7694 3161.04,431.3494 3187.41,464.8194 " fill="none" id="UC23-to-UC16" style="stroke:#000000;stroke-width:1.0;stroke-dasharray:7.0,7.0;"/><polygon fill="#000000" points="3190.82,469.1394,3188.385,459.5963,3187.7227,465.2142,3182.1048,464.552,3190.82,469.1394" style="stroke:#000000;stroke-width:1.0;"/><text fill="#000000" font-family="Verdana" font-size="13" lengthAdjust="spacing" textLength="60" x="3127.98" y="389.1763">&#171;extend&#187;</text></g><!--link UC22 to UC17--><g id="link_UC22_UC17"><path d="M3330.58,338.0094 C3351.82,347.2094 3378.14,358.3394 3401.98,367.6094 C3412.52,371.7094 3417.4,368.7194 3425.98,376.1094 C3454.37,400.5794 3471.23,442.1894 3479.24,466.9194 " fill="none" id="UC22-to-UC17" style="stroke:#000000;stroke-width:1.0;stroke-dasharray:7.0,7.0;"/><polygon fill="#000000" points="3480.82,471.9294,3481.9101,462.141,3479.3075,467.1636,3474.2849,464.561,3480.82,471.9294" style="stroke:#000000;stroke-width:1.0;"/><text fill="#000000" font-family="Verdana" font-size="13" lengthAdjust="spacing" textLength="60" x="3440.98" y="389.1763">&#171;extend&#187;</text></g><!--link UC38 to UC34--><g id="link_UC38_UC34"><path d="M5408.93,341.5094 C5381.95,374.2694 5331.45,435.5494 5305.43,467.1394 " fill="none" id="UC38-to-UC34" style="stroke:#000000;stroke-width:1.0;stroke-dasharray:7.0,7.0;"/><polygon fill="#000000" points="5302.07,471.2194,5310.8854,466.8274,5305.254,467.3643,5304.7172,461.7329,5302.07,471.2194" style="stroke:#000000;stroke-width:1.0;"/><text fill="#000000" font-family="Verdana" font-size="13" lengthAdjust="spacing" textLength="60" x="5378.98" y="389.1763">&#171;extend&#187;</text></g><!--link UC20 to GMN131--><g id="link_UC20_GMN131"><path d="M3027.6,471.4994 C3044.44,446.9194 3079.88,401.8594 3123.48,384.3594 C3182.46,360.6794 7638.68,365.8394 7699.48,384.3594 C7753.25,400.7394 7805.3,442.7794 7833.13,468.0394 " fill="none" id="UC20-GMN131" style="stroke:#000000;stroke-width:1.0;stroke-dasharray:7.0,7.0;"/></g><!--link UC16 to GMN134--><g id="link_UC16_GMN134"><path d="M3231.65,470.0894 C3270.51,445.0394 3345.88,400.9094 3417.48,384.3594 C3478.83,370.1794 7892.1,363.3794 7951.48,384.3594 C7993.92,399.3594 8032.64,434.9794 8056.23,460.2894 " fill="none" id="UC16-GMN134" style="stroke:#000000;stroke-width:1.0;stroke-dasharray:7.0,7.0;"/></g><!--link UC25 to GMN137--><g id="link_UC25_GMN137"><path d="M4476.93,298.9394 C4492.46,263.5694 4530.52,190.2394 4589.48,161.1094 C4666.93,122.8494 7619.88,127.5394 7699.48,161.1094 C7766.5,189.3794 7818.77,262.7894 7841.13,298.5094 " fill="none" id="UC25-GMN137" style="stroke:#000000;stroke-width:1.0;stroke-dasharray:7.0,7.0;"/></g><!--link GMN140 to UC30--><g id="link_GMN140_UC30"><path d="M8049.18,290.9894 C8034.25,253.6194 8001.86,188.4894 7949.48,161.1094 C7873.85,121.5794 7836.42,128.6994 7757.48,161.1094 C7690.69,188.5294 7636.95,258.9094 7612.41,295.5894 " fill="none" id="GMN140-UC30" style="stroke:#000000;stroke-width:1.0;stroke-dasharray:7.0,7.0;"/></g><!--SRC=[ZLXjRzis4FwkNy45mze2IH39xq5G87NMha3M1JNIxxJCE4GbKICfPzxG_xxZaR95YNJZ3qx2vrwVunt9_AAVMSb8NL1U9PhhWf5xlfRYYzXH_8tAFVcJLdGBOfKcgxtIh2GNv54nigJmTSVfLj8oITwGsrmBgH9gVf0pgyrfTKQe8aNxbm-3SLQkcKIP4d_j2znkIbvnfIM5PPIZPiKuTD6iHLDjG3IHBDUqsa8IPw_8uepyboG4Fc_81o6-TmNQx1JYDSs_0qBEUcB6076VHh7Sq77sbMqXM2R95_Q2TZ7ansKw57siDrGpw_npzIHaIJKNbLF8XWehHcN-Z0hAIOs6Kj-uymmfQ5g8hHCT3qNlMC5S14veCXIo2LkBAotoLdHwolKTqvGNRPGp5FtHqcrh_Wh21u8_fxopdnwNyoZfplAGzaKaAwTm3vxQYbuDHQ45-EvelvLCGzJJi6oyxbQkvJGTHUlf6noVpiYlL3hnItKlQFMAGlN4WcLQIdROxaQ-zJWDLLGtilBQPnR90XbdQF2GmpmYYr7-0HKKSj_A1kgzf4NU52RMZxnYRJjUHOp-jMDoq_WHP862FqYHCwNG9dcWUykJ5G_K_FT_DAisDkG79hdOjC8Zlq9VMIsavjKsLXiheCXlvBQYnLxpN0NhyubLJ9gisuoiOkjs78hH290x63D42x9SVMk59x4Ak66yqj1poePYDQOd0d8xrOzdTchytEvWJzCrBxZUz_Jc9nnXRNpnXS-sEt8wXnACZXZpGU4Wzsx6EeKLqwQWXnaVs7eVm4TJ8_LhM6WbqmWfpl2zE1hDeb50DXBwAeTZLH_4UxjknOgdYnMJEvwpO_haBOnJTuwhTpqoEXf13knGsdkDD1h7vKon3dAJwDHqMw5W_haPExsWrvI0FWaS3QDPQ5BztJ2bRPzYpwgEmjoHzkDmFIAI5MXJFVDQaHUkduqnakFk0Qd3jQcpVBWyaOkBzsPeaMkmOm-z8Pe1sk0fDyH6W2da9G2E0Tm11qDa0iW6pvOXDWMin8qpn6QjHT36KoOPYCnFvh8uaKjw5OqtDGorvsi0pZ2V4m8dUKedFqyhDRJaUE8531XUQdiUXE1vFB45qXK6CqD8tXvU0TomKegAupLzW6OdWyeC9GmFfK2wcTaxMpT60yeJLCPpQ0XEe-bcizDcuqHb2q_pq5ZjWwFJNNPSXHh4Gqo6yAPu6QWSDddICtNi9t_Ta07sy-zzO1frFff5RDdsmHc4MNglfKwI-6RgZ8-sOxlhMMJTuwGB71FihauYPgQHzGv_tULvH7mHMSTn40HY-QQnXDDenkaufZ89Pu5pGC25Ih6-nYoApBjzwY7TzlTA5qlUxtaFoMB-iTLf3RDWnthfzFhSWxezxW660cgkdl_sLMPnQr4EiYu7_Zx5-IUg9xvjP7yF6nvg9isPtaEocAVHg4CgzDQZwwRU6VwMLtdHRE3sG-72xaRaEwFmsGA-V8ARuh9jh9iRf_x-VGT90z3CGbZgBfIONebfBI98WhMyF6mHNojpljAh8UHyZOV88c8Fc72lcJuHiDCkBmzjSdDZoRFMiXQQzI4OUXOQZNq877qHPYTLy4qatpvh8fwEZpUythS798HnJNvDpQOW6xf70NDx5UxripQtnSH4RQmb0vlktVgD5Xpl9-xQInGyRHfrZg2nGMZdBN9kzWX2XRam5hpay39RCt3Cx7K1xlqddBg7rQgfxPkkR0hDQxZRshkgkaOO7cBdG7dEYdFoSFUnRwzWJywSUraisvuXJuOXxCRpOvGrFZ_LCNPbNnCrbRHaU6_hULWBhKNfVDWhlFld1T1VuPma-fbnYL3UI6d-js2SWHT3_kOOWcag38kM-20v-leV]--></g></svg>